<?xml version="1.0" encoding="UTF-8"?>
<svg width="700pt" height="700pt" version="1.1" viewBox="0 0 700 550" xmlns="http://www.w3.org/2000/svg"
    fill="currentColor">
    <path
        d="m620.55 50.051v-34.277h-541.1v34.277h16.332v465.76h-16.332v28.398h541.1v-28.398h-16.332l-0.003906-465.76zm-127.1 465.78h-48.277v-465.78h48.277zm-207.36-465.78h48.277v465.76h-48.277zm-31.242 465.78h-48.301v-465.78h48.277v465.78zm110.79-465.78h48.277v465.76h-48.277zm-238.61 0h48.277v465.76h-48.277zm397.67 465.78v-184.89h48.277v184.89zm11.785-246.54c0-6.8125 5.5312-12.367 12.367-12.367 6.8125 0 12.367 5.5312 12.367 12.367 0 4.6914-2.707 8.6094-6.5352 10.711l-3.6172 26.039h-4.3867l-3.6172-26.039c-3.8945-2.1016-6.5781-6.043-6.5781-10.711zm36.492-37.262h-48.277v-181.98h48.277z" />
</svg>