<?xml version="1.0" encoding="UTF-8"?>
<svg width="700pt" height="700pt" version="1.1" viewBox="0 0 700 540" xmlns="http://www.w3.org/2000/svg"
    xmlns:xlink="http://www.w3.org/1999/xlink" fill='currentColor'>
    <defs>
        <symbol id="w" overflow="hidden">
            <path
                d="m18.766-1.125c-0.96875 0.5-1.9805 0.875-3.0312 1.125-1.043 0.25781-2.1367 0.39062-3.2812 0.39062-3.3984 0-6.0898-0.94531-8.0781-2.8438-1.9922-1.9062-2.9844-4.4844-2.9844-7.7344 0-3.2578 0.99219-5.8359 2.9844-7.7344 1.9883-1.9062 4.6797-2.8594 8.0781-2.8594 1.1445 0 2.2383 0.13281 3.2812 0.39062 1.0508 0.25 2.0625 0.625 3.0312 1.125v4.2188c-0.98047-0.65625-1.9453-1.1406-2.8906-1.4531-0.94922-0.3125-1.9492-0.46875-3-0.46875-1.875 0-3.3516 0.60547-4.4219 1.8125-1.0742 1.1992-1.6094 2.8555-1.6094 4.9688 0 2.1055 0.53516 3.7617 1.6094 4.9688 1.0703 1.1992 2.5469 1.7969 4.4219 1.7969 1.0508 0 2.0508-0.14844 3-0.45312 0.94531-0.3125 1.9102-0.80078 2.8906-1.4688z" />
        </symbol>
        <symbol id="a" overflow="hidden">
            <path
                d="m13.734-11.141c-0.4375-0.19531-0.87109-0.34375-1.2969-0.4375-0.41797-0.10156-0.83984-0.15625-1.2656-0.15625-1.2617 0-2.2305 0.40625-2.9062 1.2188-0.67969 0.80469-1.0156 1.9531-1.0156 3.4531v7.0625h-4.8906v-15.312h4.8906v2.5156c0.625-1 1.3438-1.7266 2.1562-2.1875 0.82031-0.46875 1.8008-0.70312 2.9375-0.70312 0.16406 0 0.34375 0.011719 0.53125 0.03125 0.19531 0.011719 0.47656 0.039062 0.84375 0.078125z" />
        </symbol>
        <symbol id="b" overflow="hidden">
            <path
                d="m17.641-7.7031v1.4062h-11.453c0.125 1.1484 0.53906 2.0078 1.25 2.5781 0.70703 0.57422 1.7031 0.85938 2.9844 0.85938 1.0312 0 2.082-0.14844 3.1562-0.45312 1.082-0.3125 2.1914-0.77344 3.3281-1.3906v3.7656c-1.1562 0.4375-2.3125 0.76562-3.4688 0.98438-1.1562 0.22656-2.3125 0.34375-3.4688 0.34375-2.7734 0-4.9297-0.70312-6.4688-2.1094-1.5312-1.4062-2.2969-3.3789-2.2969-5.9219 0-2.5 0.75391-4.4609 2.2656-5.8906 1.5078-1.4375 3.582-2.1562 6.2188-2.1562 2.4062 0 4.332 0.73047 5.7812 2.1875 1.4453 1.4492 2.1719 3.3828 2.1719 5.7969zm-5.0312-1.625c0-0.92578-0.27344-1.6719-0.8125-2.2344-0.54297-0.57031-1.25-0.85938-2.125-0.85938-0.94922 0-1.7188 0.26562-2.3125 0.79688s-0.96484 1.2969-1.1094 2.2969z" />
        </symbol>
        <symbol id="e" overflow="hidden">
            <path
                d="m9.2188-6.8906c-1.0234 0-1.793 0.17188-2.3125 0.51562-0.51172 0.34375-0.76562 0.85547-0.76562 1.5312 0 0.625 0.20703 1.1172 0.625 1.4688 0.41406 0.34375 0.98828 0.51562 1.7188 0.51562 0.92578 0 1.7031-0.32812 2.3281-0.98438 0.63281-0.66406 0.95312-1.4922 0.95312-2.4844v-0.5625zm7.4688-1.8438v8.7344h-4.9219v-2.2656c-0.65625 0.92969-1.3984 1.6055-2.2188 2.0312-0.82422 0.41406-1.8242 0.625-3 0.625-1.5859 0-2.8711-0.45703-3.8594-1.375-0.99219-0.92578-1.4844-2.1289-1.4844-3.6094 0-1.7891 0.61328-3.1016 1.8438-3.9375 1.2383-0.84375 3.1797-1.2656 5.8281-1.2656h2.8906v-0.39062c0-0.76953-0.30859-1.332-0.92188-1.6875-0.61719-0.36328-1.5703-0.54688-2.8594-0.54688-1.0547 0-2.0312 0.10547-2.9375 0.3125-0.89844 0.21094-1.7305 0.52344-2.5 0.9375v-3.7344c1.0391-0.25 2.0859-0.44141 3.1406-0.57812 1.0625-0.13281 2.125-0.20312 3.1875-0.20312 2.7578 0 4.75 0.54688 5.9688 1.6406 1.2266 1.0859 1.8438 2.8555 1.8438 5.3125z" />
        </symbol>
        <symbol id="d" overflow="hidden">
            <path
                d="m7.7031-19.656v4.3438h5.0469v3.5h-5.0469v6.5c0 0.71094 0.14062 1.1875 0.42188 1.4375s0.83594 0.375 1.6719 0.375h2.5156v3.5h-4.1875c-1.9375 0-3.3125-0.39844-4.125-1.2031-0.80469-0.8125-1.2031-2.1797-1.2031-4.1094v-6.5h-2.4219v-3.5h2.4219v-4.3438z" />
        </symbol>
        <symbol id="j" overflow="hidden">
            <path
                d="m12.766-13.078v-8.2031h4.9219v21.281h-4.9219v-2.2188c-0.66797 0.90625-1.4062 1.5703-2.2188 1.9844s-1.7578 0.625-2.8281 0.625c-1.8867 0-3.4336-0.75-4.6406-2.25-1.2109-1.5-1.8125-3.4258-1.8125-5.7812 0-2.3633 0.60156-4.2969 1.8125-5.7969 1.207-1.5 2.7539-2.25 4.6406-2.25 1.0625 0 2 0.21484 2.8125 0.64062 0.82031 0.42969 1.5664 1.0859 2.2344 1.9688zm-3.2188 9.9219c1.0391 0 1.8359-0.37891 2.3906-1.1406 0.55078-0.76953 0.82812-1.8828 0.82812-3.3438 0-1.457-0.27734-2.5664-0.82812-3.3281-0.55469-0.76953-1.3516-1.1562-2.3906-1.1562-1.043 0-1.8398 0.38672-2.3906 1.1562-0.55469 0.76172-0.82812 1.8711-0.82812 3.3281 0 1.4609 0.27344 2.5742 0.82812 3.3438 0.55078 0.76172 1.3477 1.1406 2.3906 1.1406z" />
        </symbol>
        <symbol id="f" overflow="hidden">
            <path
                d="m10.5-3.1562c1.0508 0 1.8516-0.37891 2.4062-1.1406 0.55078-0.76953 0.82812-1.8828 0.82812-3.3438 0-1.457-0.27734-2.5664-0.82812-3.3281-0.55469-0.76953-1.3555-1.1562-2.4062-1.1562-1.0547 0-1.8594 0.38672-2.4219 1.1562-0.55469 0.77344-0.82812 1.8828-0.82812 3.3281 0 1.4492 0.27344 2.5586 0.82812 3.3281 0.5625 0.77344 1.3672 1.1562 2.4219 1.1562zm-3.25-9.9219c0.67578-0.88281 1.4219-1.5391 2.2344-1.9688 0.82031-0.42578 1.7656-0.64062 2.8281-0.64062 1.8945 0 3.4453 0.75 4.6562 2.25 1.207 1.5 1.8125 3.4336 1.8125 5.7969 0 2.3555-0.60547 4.2812-1.8125 5.7812-1.2109 1.5-2.7617 2.25-4.6562 2.25-1.0625 0-2.0078-0.21094-2.8281-0.625-0.8125-0.42578-1.5586-1.0859-2.2344-1.9844v2.2188h-4.8906v-21.281h4.8906z" />
        </symbol>
        <symbol id="i" overflow="hidden">
            <path
                d="m0.34375-15.312h4.8906l4.125 10.391 3.5-10.391h4.8906l-6.4375 16.766c-0.64844 1.6953-1.4023 2.8828-2.2656 3.5625-0.86719 0.6875-2 1.0312-3.4062 1.0312h-2.8438v-3.2188h1.5312c0.83203 0 1.4375-0.13672 1.8125-0.40625 0.38281-0.26172 0.67969-0.73047 0.89062-1.4062l0.14062-0.42188z" />
        </symbol>
        <symbol id="h" overflow="hidden">
            <path d="m2.5781-20.406h5.25v16.422h9.25v3.9844h-14.5z" />
        </symbol>
        <symbol id="v" overflow="hidden">
            <path d="m2.3594-21.281h4.8906v21.281h-4.8906z" />
        </symbol>
        <symbol id="g" overflow="hidden">
            <path
                d="m2.1875-5.9688v-9.3438h4.9219v1.5312c0 0.83594-0.007813 1.875-0.015625 3.125-0.011719 1.25-0.015625 2.0859-0.015625 2.5 0 1.2422 0.03125 2.1328 0.09375 2.6719 0.070313 0.54297 0.17969 0.93359 0.32812 1.1719 0.20703 0.32422 0.47266 0.57422 0.79688 0.75 0.32031 0.16797 0.69141 0.25 1.1094 0.25 1.0195 0 1.8203-0.39062 2.4062-1.1719 0.58203-0.78125 0.875-1.8672 0.875-3.2656v-7.5625h4.8906v15.312h-4.8906v-2.2188c-0.74219 0.89844-1.5234 1.5586-2.3438 1.9844-0.82422 0.41406-1.7344 0.625-2.7344 0.625-1.7617 0-3.1055-0.53906-4.0312-1.625-0.92969-1.082-1.3906-2.6602-1.3906-4.7344z" />
        </symbol>
        <symbol id="u" overflow="hidden">
            <path d="m2.3594-15.312h4.8906v15.312h-4.8906zm0-5.9688h4.8906v4h-4.8906z" />
        </symbol>
        <symbol id="t" overflow="hidden">
            <path
                d="m14.312-14.828v3.7188c-1.043-0.4375-2.0547-0.76562-3.0312-0.98438-0.98047-0.21875-1.9023-0.32812-2.7656-0.32812-0.92969 0-1.6211 0.11719-2.0781 0.34375-0.44922 0.23047-0.67188 0.58984-0.67188 1.0781 0 0.38672 0.17188 0.68359 0.51562 0.89062 0.34375 0.21094 0.95703 0.36719 1.8438 0.46875l0.85938 0.125c2.5078 0.32422 4.1953 0.85156 5.0625 1.5781 0.86328 0.73047 1.2969 1.8711 1.2969 3.4219 0 1.6367-0.60547 2.8672-1.8125 3.6875-1.1992 0.8125-2.9922 1.2188-5.375 1.2188-1.0234 0-2.0742-0.078125-3.1562-0.23438-1.0742-0.15625-2.1797-0.39453-3.3125-0.71875v-3.7188c0.96875 0.48047 1.9609 0.83984 2.9844 1.0781 1.0312 0.23047 2.0781 0.34375 3.1406 0.34375 0.95703 0 1.6758-0.12891 2.1562-0.39062 0.47656-0.26953 0.71875-0.66406 0.71875-1.1875 0-0.4375-0.16797-0.75781-0.5-0.96875-0.33594-0.21875-0.99609-0.38281-1.9844-0.5l-0.85938-0.10938c-2.1797-0.26953-3.7031-0.77344-4.5781-1.5156-0.875-0.73828-1.3125-1.8594-1.3125-3.3594 0-1.625 0.55078-2.8281 1.6562-3.6094 1.1133-0.78906 2.8203-1.1875 5.125-1.1875 0.89453 0 1.8359 0.074219 2.8281 0.21875 1 0.13672 2.082 0.35156 3.25 0.64062z" />
        </symbol>
        <symbol id="s" overflow="hidden">
            <path d="m2.5781-20.406h5.25v20.406h-5.25z" />
        </symbol>
        <symbol id="c" overflow="hidden">
            <path
                d="m9.6406-12.188c-1.0859 0-1.9141 0.39062-2.4844 1.1719-0.57422 0.78125-0.85938 1.9062-0.85938 3.375s0.28516 2.5938 0.85938 3.375c0.57031 0.77344 1.3984 1.1562 2.4844 1.1562 1.0625 0 1.875-0.38281 2.4375-1.1562 0.57031-0.78125 0.85938-1.9062 0.85938-3.375s-0.28906-2.5938-0.85938-3.375c-0.5625-0.78125-1.375-1.1719-2.4375-1.1719zm0-3.5c2.6328 0 4.6914 0.71484 6.1719 2.1406 1.4766 1.418 2.2188 3.3867 2.2188 5.9062 0 2.5117-0.74219 4.4805-2.2188 5.9062-1.4805 1.418-3.5391 2.125-6.1719 2.125-2.6484 0-4.7148-0.70703-6.2031-2.125-1.4922-1.4258-2.2344-3.3945-2.2344-5.9062 0-2.5195 0.74219-4.4883 2.2344-5.9062 1.4883-1.4258 3.5547-2.1406 6.2031-2.1406z" />
        </symbol>
        <symbol id="r" overflow="hidden">
            <path
                d="m12.422-21.281v3.2188h-2.7031c-0.6875 0-1.1719 0.125-1.4531 0.375-0.27344 0.25-0.40625 0.6875-0.40625 1.3125v1.0625h4.1875v3.5h-4.1875v11.812h-4.8906v-11.812h-2.4375v-3.5h2.4375v-1.0625c0-1.6641 0.46094-2.8984 1.3906-3.7031 0.92578-0.80078 2.3672-1.2031 4.3281-1.2031z" />
        </symbol>
        <symbol id="q" overflow="hidden">
            <path
                d="m16.547-12.766c0.61328-0.94531 1.3477-1.6719 2.2031-2.1719 0.85156-0.5 1.7891-0.75 2.8125-0.75 1.7578 0 3.0977 0.54688 4.0156 1.6406 0.92578 1.0859 1.3906 2.6562 1.3906 4.7188v9.3281h-4.9219v-7.9844-0.35938c0.007813-0.13281 0.015625-0.32031 0.015625-0.5625 0-1.082-0.16406-1.8633-0.48438-2.3438-0.3125-0.48828-0.82422-0.73438-1.5312-0.73438-0.92969 0-1.6484 0.38672-2.1562 1.1562-0.51172 0.76172-0.77344 1.8672-0.78125 3.3125v7.5156h-4.9219v-7.9844c0-1.6953-0.14844-2.7852-0.4375-3.2656-0.29297-0.48828-0.8125-0.73438-1.5625-0.73438-0.9375 0-1.6641 0.38672-2.1719 1.1562-0.51172 0.76172-0.76562 1.8594-0.76562 3.2969v7.5312h-4.9219v-15.312h4.9219v2.2344c0.60156-0.86328 1.2891-1.5156 2.0625-1.9531 0.78125-0.4375 1.6406-0.65625 2.5781-0.65625 1.0625 0 2 0.25781 2.8125 0.76562 0.8125 0.51172 1.4258 1.2305 1.8438 2.1562z" />
        </symbol>
        <symbol id="p" overflow="hidden">
            <path
                d="m17.75-9.3281v9.3281h-4.9219v-7.1094c0-1.3438-0.03125-2.2656-0.09375-2.7656s-0.16797-0.86719-0.3125-1.1094c-0.1875-0.3125-0.44922-0.55469-0.78125-0.73438-0.32422-0.17578-0.69531-0.26562-1.1094-0.26562-1.0234 0-1.8242 0.39844-2.4062 1.1875-0.58594 0.78125-0.875 1.8711-0.875 3.2656v7.5312h-4.8906v-21.281h4.8906v8.2031c0.73828-0.88281 1.5195-1.5391 2.3438-1.9688 0.83203-0.42578 1.75-0.64062 2.75-0.64062 1.7695 0 3.1133 0.54688 4.0312 1.6406 0.91406 1.0859 1.375 2.6562 1.375 4.7188z" />
        </symbol>
        <symbol id="o" overflow="hidden">
            <path d="m2.5781-20.406h5.875l7.4219 14v-14h4.9844v20.406h-5.875l-7.4219-14v14h-4.9844z" />
        </symbol>
        <symbol id="n" overflow="hidden">
            <path
                d="m17.75-9.3281v9.3281h-4.9219v-7.1406c0-1.3203-0.03125-2.2344-0.09375-2.7344s-0.16797-0.86719-0.3125-1.1094c-0.1875-0.3125-0.44922-0.55469-0.78125-0.73438-0.32422-0.17578-0.69531-0.26562-1.1094-0.26562-1.0234 0-1.8242 0.39844-2.4062 1.1875-0.58594 0.78125-0.875 1.8711-0.875 3.2656v7.5312h-4.8906v-15.312h4.8906v2.2344c0.73828-0.88281 1.5195-1.5391 2.3438-1.9688 0.83203-0.42578 1.75-0.64062 2.75-0.64062 1.7695 0 3.1133 0.54688 4.0312 1.6406 0.91406 1.0859 1.375 2.6562 1.375 4.7188z" />
        </symbol>
        <symbol id="m" overflow="hidden">
            <path
                d="m2.5781-20.406h8.7344c2.5938 0 4.582 0.57812 5.9688 1.7344 1.3945 1.1484 2.0938 2.7891 2.0938 4.9219 0 2.1367-0.69922 3.7812-2.0938 4.9375-1.3867 1.1562-3.375 1.7344-5.9688 1.7344h-3.4844v7.0781h-5.25zm5.25 3.8125v5.7031h2.9219c1.0195 0 1.8047-0.25 2.3594-0.75 0.5625-0.5 0.84375-1.2031 0.84375-2.1094 0-0.91406-0.28125-1.6172-0.84375-2.1094-0.55469-0.48828-1.3398-0.73438-2.3594-0.73438z" />
        </symbol>
        <symbol id="l" overflow="hidden">
            <path
                d="m2.3594-15.312h4.8906v15.031c0 2.0508-0.49609 3.6172-1.4844 4.7031-0.98047 1.082-2.4062 1.625-4.2812 1.625h-2.4219v-3.2188h0.85938c0.92578 0 1.5625-0.21094 1.9062-0.625 0.35156-0.41797 0.53125-1.2461 0.53125-2.4844zm0-5.9688h4.8906v4h-4.8906z" />
        </symbol>
        <symbol id="k" overflow="hidden">
            <path
                d="m14.719-14.828v3.9844c-0.65625-0.45703-1.3242-0.79688-2-1.0156-0.66797-0.21875-1.3594-0.32812-2.0781-0.32812-1.3672 0-2.4336 0.40234-3.2031 1.2031-0.76172 0.79297-1.1406 1.9062-1.1406 3.3438 0 1.4297 0.37891 2.543 1.1406 3.3438 0.76953 0.79297 1.8359 1.1875 3.2031 1.1875 0.75781 0 1.4844-0.10938 2.1719-0.32812 0.6875-0.22656 1.3203-0.56641 1.9062-1.0156v4c-0.76172 0.28125-1.5391 0.48828-2.3281 0.625-0.78125 0.14453-1.5742 0.21875-2.375 0.21875-2.7617 0-4.9219-0.70703-6.4844-2.125-1.5547-1.4141-2.3281-3.3828-2.3281-5.9062 0-2.5312 0.77344-4.5039 2.3281-5.9219 1.5625-1.4141 3.7227-2.125 6.4844-2.125 0.80078 0 1.5938 0.074219 2.375 0.21875 0.78125 0.13672 1.5547 0.35156 2.3281 0.64062z" />
        </symbol>
    </defs>
    <g>
        <path
            d="m437.9 240.44c0.023437 0.050781-0.003907 0.10547 0.015624 0.14453 0.066407 0.11719 0.17188 0.17188 0.26172 0.26172 0.066407 0.066406 0.11719 0.13281 0.19531 0.18359 0.23047 0.15234 0.48047 0.25391 0.75781 0.25391 0.125 0 0.25781-0.015625 0.37891-0.054688 0.042969-0.011718 0.054688-0.0625 0.10156-0.078124 0.078125-0.027344 0.15234-0.015626 0.21875-0.0625l3.207-1.8594c0.042969-0.023437 0.042969-0.085937 0.085938-0.11328 0.11328-0.078125 0.17969-0.17188 0.26172-0.28516 0.089844-0.10547 0.15234-0.19141 0.19531-0.32031 0.039063-0.089843 0.078125-0.14453 0.10156-0.24219 0.003906-0.039063 0.042968-0.0625 0.050781-0.10156 0.011719-0.10156-0.074219-0.16797-0.078125-0.26953-0.003906-0.10156 0.0625-0.17969 0.027344-0.28125l-5.3711-18.473c-0.015625-0.0625-0.089844-0.085937-0.11328-0.13281-0.023437-0.0625 0.003907-0.11719-0.023437-0.17187-0.074219-0.11719-0.20703-0.13281-0.29688-0.22266-0.14062-0.13281-0.24609-0.25391-0.42188-0.32422-0.17188-0.074218-0.33594-0.0625-0.51953-0.0625-0.12891 0.003907-0.24219-0.078124-0.37109-0.039062-0.054688 0.015625-0.078125 0.085938-0.12891 0.11328-0.054688 0.023438-0.11719-0.011719-0.17188 0.023438l-3.2148 1.8672c-0.11719 0.074219-0.14062 0.21094-0.23047 0.30859-0.12891 0.12891-0.24219 0.24219-0.3125 0.40234-0.074218 0.17188-0.0625 0.33203-0.0625 0.51562 0 0.12891-0.078125 0.25391-0.039062 0.37891l4.7227 16.18v0.003907l0.65625 2.2852c0.027344 0.074219 0.089844 0.10938 0.11719 0.17188zm-2.4883-18.371 0.71094-0.41016 4.2891 14.738-0.85156-0.10156z" />
        <path
            d="m269.94 305.16h0.003906c0.21875-0.003906 0.4375-0.050781 0.63672-0.15625 0.054687-0.027344 0.0625-0.09375 0.11328-0.12891 0.16797-0.11328 0.25781-0.26172 0.36328-0.4375 0.078124-0.13281 0.16797-0.23438 0.20312-0.38672 0.011719-0.050781 0.0625-0.078125 0.066407-0.12891 0.015625-0.14453-0.089844-0.25391-0.11719-0.38672-0.023437-0.14062 0.035157-0.28516-0.035156-0.41406l-1.832-3.5c-0.003906-0.015626-0.027344-0.015626-0.035156-0.035157-0.011719-0.011719 0-0.027343-0.003907-0.042969l-2.3125-3.8203c-0.011719-0.015625-0.035156-0.015625-0.050781-0.039062-0.011719-0.015626 0-0.039063-0.011719-0.054688l-0.63672-0.88672h-0.003906l-1.9102-2.6875c-0.011719-0.015625-0.035156-0.011719-0.042969-0.027343-0.011719-0.015626 0-0.039063-0.015625-0.054688l-2.7656-3.3477c-0.011719-0.015625-0.039062-0.011719-0.050781-0.027344s-0.003906-0.039062-0.023438-0.054688l-2.9219-3.0195c-0.015626-0.015625-0.039063-0.011719-0.054688-0.023437-0.015625-0.015625-0.011719-0.042969-0.027344-0.0625l-3.0508-2.6719c-0.015625-0.015625-0.042969-0.003907-0.066406-0.023438-0.015625-0.015625-0.011719-0.042969-0.035157-0.054687l-3.1289-2.2617c-0.023437-0.015625-0.050781-0.003906-0.066406-0.015625-0.023438-0.015625-0.023438-0.042969-0.042969-0.0625l-10.902-6.3516-13.898-24.414c-0.015625-0.027344-0.054688-0.027344-0.074219-0.054687-0.015625-0.027344-0.003906-0.066407-0.023437-0.09375l-9.4531-12.609c-0.023438-0.027343-0.0625-0.023437-0.085938-0.050781-0.023437-0.027343-0.011719-0.066406-0.035156-0.089843l-10.543-10.762c-0.027344-0.027344-0.074218-0.015625-0.10547-0.042969-0.027344-0.027344-0.023438-0.074219-0.054688-0.09375l-11.16-8.4219c-0.039063-0.027344-0.089844-0.011719-0.125-0.035156-0.039063-0.027344-0.042969-0.078125-0.085938-0.10156l-11.273-5.7109c-0.050781-0.027344-0.11328 0.003906-0.16406-0.011719-0.054687-0.023438-0.074218-0.085938-0.12891-0.10156l-10.961-2.7422c-0.011718-0.003906-0.023437 0.003906-0.035156 0.003906-0.011718-0.003906-0.015625-0.015625-0.035156-0.023437l-0.38672-0.078125c-0.066406-0.011719-0.11719 0.039062-0.17969 0.039062-0.066406-0.011718-0.10156-0.0625-0.17188-0.066406l-9.457 0.53906c-0.085938 0.003907-0.12891 0.085938-0.21094 0.10547-0.078125 0.015625-0.15234-0.035156-0.23047-0.003906l-1.0469 0.41406s0 0.003906-0.003906 0.003906l-7.582 3.0625c-0.089844 0.039062-0.11328 0.13281-0.18359 0.18359-0.078125 0.050781-0.17969 0.027343-0.24609 0.09375l-6.832 6.4297c-0.0625 0.0625-0.042969 0.14453-0.09375 0.21094-0.050781 0.066407-0.14062 0.078126-0.18359 0.15234l-4.7812 9.0664c-0.035156 0.0625 0.003906 0.125-0.015625 0.19141-0.023437 0.0625-0.09375 0.089843-0.11328 0.15625l-2.4805 11.277c-0.011719 0.054688 0.035157 0.10156 0.027344 0.14453-0.003906 0.054687-0.0625 0.089844-0.0625 0.14062l-0.16016 22.445-7.4297 3.9492c-0.050781 0.027344-0.054687 0.089844-0.10156 0.11719-0.050781 0.035156-0.11328 0.011718-0.15625 0.050781l-1.9922 1.707c-0.039062 0.035156-0.027343 0.09375-0.066406 0.12891-0.035156 0.035156-0.089844 0.027344-0.11719 0.066406l-1.6953 2.1328c-0.027344 0.039063-0.011719 0.09375-0.039063 0.12891-0.027343 0.035157-0.085937 0.042969-0.10547 0.089844l-1.3477 2.5586c-0.015626 0.039062 0.003906 0.078125-0.011719 0.11719-0.015625 0.039063-0.0625 0.050782-0.078125 0.089844l-0.98828 2.918c-0.011718 0.039062 0.015626 0.074219 0.003907 0.10547-0.011719 0.039062-0.054688 0.054687-0.0625 0.09375l-0.59766 3.2812c-0.003906 0.035156 0.023438 0.0625 0.015626 0.09375 0 0.027343-0.035157 0.042968-0.039063 0.078124l-0.20703 3.543c0 0.027344 0.027344 0.050781 0.027344 0.078125s-0.027344 0.050782-0.027344 0.078125l0.15625 3.2383c0.003906 0.125 0.11328 0.20313 0.14453 0.3125 0.027344 0.11328-0.015625 0.21875 0.039063 0.32031 0.023437 0.042969 0.066406 0.054687 0.09375 0.09375 0.035156 0.050781 0.066406 0.085937 0.11328 0.125 0.050781 0.0625 0.10156 0.09375 0.15625 0.14062 0.17969 0.14062 0.37109 0.23047 0.58984 0.27344 0.039063 0.003906 0.0625 0.050781 0.10547 0.054687l144.84 16.043c0.070313 0.003906 0.11328 0.003906 0.17188 0.003906zm-128.44-64.262 2.4062-10.953 4.5859-8.6914 6.4688-6.0938 1.6875-0.68359-4.1445 7.8789c-0.035156 0.0625 0.003906 0.125-0.015625 0.19141-0.023437 0.0625-0.09375 0.089843-0.11328 0.15625l-2.5039 11.312c-0.011719 0.054687 0.035156 0.10156 0.027343 0.14453-0.003906 0.054688-0.0625 0.089844-0.0625 0.14062l-0.12891 22.438-8.3555 4.8086zm-3.8086 33.758 0.58203-3.0742 0.90625-2.7383 1.2305-2.3359 1.5352-1.9414 0.39062-0.33594 9.4688-5.4609c0.0625-0.035156 0.0625-0.11328 0.11719-0.15234 0.14453-0.11328 0.21875-0.24609 0.3125-0.40234s0.17969-0.29297 0.20312-0.47656c0.003906-0.066406 0.074218-0.10547 0.074218-0.16797l0.13281-23.094 2.4297-10.988 4.5625-8.6797 2.9023-2.7031 0.58203-0.23047 9.0703-0.51562 0.20312 0.039062 10.742 2.6875 11.016 5.582 10.965 8.2773 10.406 10.617 9.3594 12.48 14.039 24.656c0.125 0.21875 0.30078 0.38672 0.50391 0.50391 0 0.003906 0 0.011719 0.003906 0.011719l0.003907 0.003906c0.003906 0 0.003906 0 0.011718 0.003906l11.168 6.5 2.9844 2.1602 2.9961 2.6133 2.832 2.9219 2.7148 3.293 0.066406 0.09375-124.63-13.797-0.10156-1.9727zm-11.348 9.832 0.19531-3.3828 0.57031-3.1133 0.91797-2.7148 1.2305-2.3359 1.5234-1.9141 1.7969-1.5352 4.3008-2.2852-0.23438 0.43359c-0.023437 0.039062 0.003906 0.085937-0.011719 0.11719-0.015625 0.035156-0.066406 0.050782-0.078125 0.09375l-0.97266 2.9414c-0.011719 0.035157 0.015625 0.066407 0.003906 0.10156s-0.050781 0.050781-0.054687 0.085937l-0.60938 3.2578c-0.003907 0.035156 0.023437 0.054687 0.015625 0.089844-0.003906 0.035156-0.039063 0.050781-0.039063 0.085937l-0.21875 3.543c0 0.027344 0.027344 0.050781 0.027344 0.078125 0 0.035156-0.027344 0.050781-0.027344 0.078125l0.11719 2.3984-8.418 4.8555zm3.1562 2.3086 7.0547-4.0781 127.83 14.152 0.23438 0.33594 2.2617 3.7344 0.59375 1.1367z" />
        <path
            d="m322.69 514.1c0.039062 0.078125 0.11719 0.11328 0.17188 0.16797 0.054687 0.066406 0.10547 0.11719 0.16797 0.16797 0.25391 0.21094 0.54688 0.35938 0.86719 0.35938 0.23438 0 0.47656-0.0625 0.69922-0.18359l229.39-132.44c0.039062-0.023438 0.039062-0.066407 0.066406-0.089844 0.20703-0.13281 0.33203-0.33984 0.4375-0.56641 0.042969-0.09375 0.11719-0.14453 0.14062-0.24609 0.011719-0.023437 0.035156-0.027344 0.035156-0.050781l19.426-99.445c0.039062-0.17188-0.066407-0.32031-0.09375-0.48047-0.027344-0.16406 0.027343-0.33594-0.066407-0.48828-0.003906-0.015625-0.027343-0.015625-0.039062-0.027343-0.10547-0.16797-0.29297-0.23438-0.45312-0.34766-0.14453-0.09375-0.24609-0.23047-0.41016-0.26953-0.023438-0.003906-0.023438-0.023438-0.042969-0.027344-0.16406-0.035156-0.29688 0.066406-0.45312 0.09375-0.17188 0.023438-0.35156-0.027344-0.50781 0.066406l-14.219 8.2266-86.445 49.906-2.5742 1.4883h-0.003906l-8.5469 4.9219h-0.011719l-10.539 6.1055c-0.003907 0-0.003907 0.003906-0.003907 0.011719l-3.8789 2.2383v0.003906l-1.0312 0.58203c-0.003906 0-0.003906 0.003906-0.003906 0.003906h-0.003907l-3.2969 1.8945c-0.003907 0-0.003907 0.003906-0.003907 0.003906l-1.3008 0.76172h-0.003906l-17.801 10.281-6.3242 3.6406s0 0.003906-0.003906 0.003906l-2.5469 1.4844h-0.003906l-12.312 7.1016c-0.003906 0-0.003906 0.003906-0.003906 0.003906h-0.003906l-2.5703 1.5078-75.363 43.512c-0.0625 0.035156-0.066406 0.11328-0.11719 0.15234-0.14453 0.11328-0.21875 0.24609-0.3125 0.41016-0.09375 0.15625-0.17187 0.29297-0.20312 0.47656-0.003907 0.066406-0.074219 0.11328-0.074219 0.17188v88.211c0 0.12891 0.10547 0.21875 0.14062 0.33984 0.019531 0.12109-0.03125 0.24609 0.035156 0.36328zm150.62-173.55 83.234-48.055-15.59 79.738-83.227 48.047zm-20.969 12.094 6.8984-4-0.66016 6.4297-6.8711 3.9648 0.65625-6.3125c0.007812-0.03125-0.027344-0.046875-0.023438-0.082031zm-3.9336 3.0352 0.89453-0.51562-0.64844 6.3164-0.71875 6.8594-0.89062 0.52734zm-4.9414 2.0781 0.73438-0.42188-0.69922 6.7578-0.24219 0.14062h-0.011719l-0.48047 0.28125zm-19.105 11.043 14.805-8.5508-0.66016 6.4102-14.812 8.5625zm-6.3242 3.6406 3.3281-1.9141-0.49219 4.7617-1.5508-1.0977-1.3555-0.96484zm-14.793 8.5391 11.613-6.6914v-0.003906l0.25391-0.14453c0.023438 0.11719 0.14062 0.19141 0.18359 0.30078 0.085937 0.16797 0.14062 0.3125 0.28516 0.4375 0.042969 0.050781 0.042969 0.125 0.10156 0.16406l2.0234 1.4336 3.5117 2.4805c0.015625 0.015625 0.042969 0.003906 0.066406 0.023437 0.14062 0.09375 0.30859 0.12891 0.48047 0.16406 0.042969 0.011719 0.066406 0.0625 0.11719 0.066406 0.050782 0.003906 0.09375 0.003906 0.14453 0.003906h0.003906c0.23438-0.003906 0.47656-0.0625 0.69531-0.18359l17.023-9.8438 4.8047 3.4141c0.023437 0.015625 0.054687 0.011719 0.078124 0.023438 0.14063 0.09375 0.30859 0.12891 0.47656 0.16406 0.050781 0.011719 0.074219 0.0625 0.11719 0.066406 0.054688 0.003906 0.10156 0.003906 0.14453 0.003906h0.003906c0.24219-0.003906 0.48047-0.0625 0.69922-0.19141l3.8867-2.2617c0.042968-0.027344 0.042968-0.085938 0.085937-0.11328 0.16406-0.11719 0.25391-0.28516 0.34766-0.46484 0.078125-0.13281 0.17188-0.23437 0.20312-0.38672 0.003906-0.039063 0.050782-0.0625 0.050782-0.10547l0.71875-6.8555 9.2461-5.332c0.042969-0.027344 0.042969-0.089844 0.089844-0.11719 0.16406-0.11719 0.24609-0.28125 0.34766-0.45313 0.085938-0.13281 0.17188-0.24219 0.20312-0.39844 0.011719-0.039063 0.050782-0.0625 0.054688-0.10547l0.94141-9.1602 5.2734-3.0352-14.84 75.93-49.43 28.547-0.003906-67.375zm-2.582 70.539c0.035157 0.0625 0.10156 0.089843 0.14063 0.13281 0.054687 0.066407 0.10156 0.11719 0.16406 0.16797 0.11719 0.10156 0.23438 0.17188 0.375 0.23047l-0.68359 0.39062-0.003906-0.92188zm-75.367-25.52 72.566-41.887v70.734l-72.566 41.887zm0 73.969 217.61-125.63c0.035156-0.023437 0.035156-0.066406 0.066406-0.089843 0.19531-0.12891 0.3125-0.33594 0.42188-0.55469 0.050781-0.09375 0.12891-0.15625 0.15625-0.26172 0-0.015625 0.023437-0.027343 0.023437-0.042969l16.184-82.758 11-6.3672-18.715 95.789-226.74 130.92z" />
        <path
            d="m156.48 439.18c0 0.023437 0.023438 0.027343 0.027344 0.050781 0.023438 0.10156 0.10547 0.15234 0.14453 0.24609 0.11328 0.22266 0.23437 0.42578 0.4375 0.56641 0.027343 0.023437 0.027343 0.066406 0.066406 0.089843l129.02 74.484c0.22266 0.125 0.46484 0.18359 0.69922 0.18359 0.32422 0 0.61719-0.14453 0.86719-0.35938 0.066406-0.054687 0.11719-0.10547 0.16797-0.16797 0.050782-0.0625 0.12891-0.09375 0.17188-0.16797 0.066407-0.11719 0.015625-0.24219 0.050781-0.35938 0.035157-0.11719 0.14063-0.20703 0.14063-0.33984v-14.242l0.003906-73.977c0-0.066406-0.0625-0.11328-0.074219-0.17188-0.023437-0.18359-0.10547-0.32031-0.19531-0.47656-0.09375-0.16406-0.16406-0.30078-0.3125-0.41016-0.054687-0.042968-0.054687-0.11719-0.11719-0.15234l-134.23-77.504-14.223-8.2266c-0.16406-0.09375-0.33984-0.042969-0.51953-0.066406-0.15625-0.023438-0.28516-0.11719-0.44922-0.09375-0.015625 0.003906-0.023438 0.027343-0.042969 0.027343-0.15625 0.039063-0.25391 0.17188-0.39062 0.26172-0.17188 0.11328-0.36328 0.17969-0.46875 0.35156-0.003906 0.011719-0.027344 0.011719-0.039062 0.027344-0.089844 0.15234-0.039063 0.32422-0.066406 0.48828-0.027344 0.16406-0.12891 0.30859-0.09375 0.48047zm129-13.188v70.734l-115.28-66.566-15.59-79.727zm-134.08-77.414 16.18 82.746c0 0.015625 0.023437 0.027343 0.027343 0.042969 0.023438 0.10547 0.11328 0.16406 0.15625 0.26172 0.10547 0.21875 0.22266 0.41406 0.42188 0.55469 0.035156 0.023437 0.035156 0.066406 0.066406 0.089844l117.23 67.691v11.004l-126.38-72.953-18.715-95.801z" />
        <path
            d="m516.14 200.75 66.824-38.609c1.0078-0.58203 1.5508-1.7266 1.3672-2.8711l-1.0625-6.5195-1.7344-6.9375-2.3516-6.9844-2.9414-6.9023-3.4648-6.7656-3.9375-6.4961-4.3555-6.1602-4.7383-5.7227-5.0078-5.1914-5.2539-4.5938-5.3945-3.9258c-0.078126-0.054687-0.15625-0.11328-0.24219-0.15234l-4.582-2.6758-10.062-17.676c-0.054688-0.10547-0.11719-0.20312-0.18359-0.29688l-12.48-16.66c-0.074218-0.10156-0.15234-0.19141-0.24219-0.28125l-13.926-14.219c-0.09375-0.10156-0.20313-0.19141-0.3125-0.28125l-14.742-11.125c-0.12891-0.10156-0.27344-0.18359-0.42578-0.26172l-14.887-7.5039c-0.18359-0.09375-0.37891-0.16797-0.58203-0.21875l-14.531-3.6172c-0.22266-0.054687-0.45312-0.085937-0.67578-0.085937h-0.125l-12.98 0.57031c-0.32031 0.015624-0.63281 0.089843-0.92969 0.20703l-11.344 4.6016c-0.11719 0.042969-0.23438 0.10547-0.34766 0.16797l-290 167.42c-0.18359 0.10547-0.35938 0.23438-0.51562 0.37891l-9.0391 8.4883c-0.23047 0.21094-0.41406 0.46094-0.55859 0.73828l-6.3008 11.969c-0.11719 0.21875-0.20312 0.45312-0.25781 0.69922l-3.2891 14.93c-0.042969 0.19141-0.066406 0.38672-0.066406 0.58203l-0.10156 15.371-2.4141 1.3906c-0.14453 0.085937-0.28516 0.17969-0.41406 0.29297l-3.3047 2.8008c-0.14062 0.11719-0.26953 0.25781-0.38672 0.40234l-2.8008 3.543c-0.10547 0.13281-0.20312 0.28125-0.28125 0.42969l-2.2227 4.2344c-0.066406 0.12891-0.125 0.26953-0.17188 0.41016l-1.625 4.8203c-0.042969 0.125-0.078125 0.25781-0.10156 0.38672l-0.98438 5.4141c-0.023438 0.11328-0.035156 0.22266-0.039063 0.33594l-0.35156 5.8516c-0.003907 0.10156-0.003907 0.20312 0 0.30078l0.29688 6.2422 0.97266 6.793 1.6172 6.9492 2.2227 7.0039 2.7266 6.707 27.629 141.39c0.15625 0.80078 0.64844 1.4844 1.3477 1.8867l161.91 93.492c0.42969 0.25391 0.91797 0.375 1.3984 0.375s0.96875-0.125 1.3984-0.375l262.29-151.44c0.69922-0.40234 1.1914-1.0859 1.3438-1.8867l27.68-141.66c0.23047-1.1719-0.3125-2.3633-1.3438-2.957zm-83.637-173.51 11.02-4.4688 12.492-0.55469 0.15234 0.015625 14.062 3.5117 14.656 7.3867 14.555 10.988 13.797 14.09 12.348 16.492 10.406 18.273c0.125 0.21875 0.30859 0.37891 0.50391 0.50391 0.003906 0 0.003906 0.003907 0.011718 0.011719l0.011719 0.003907s0 0.003906 0.011719 0.003906l5.1523 3 5.0977 3.7031 4.9766 4.3398 4.8047 4.9727 4.5078 5.4375 4.207 5.9258 3.793 6.2422 3.3477 6.5234 2.793 6.5742 2.2617 6.6641 1.6641 6.6211 0.89063 5.4805-70.184 40.543-18.754 10.82-11.156 6.4297-32.246 18.633-6.8867-23.676c-0.023437-0.0625-0.089844-0.085938-0.11719-0.14062-0.023438-0.054688 0.003906-0.11328-0.023438-0.16406-0.015625-0.035156-0.066406-0.039062-0.09375-0.074219-0.066406-0.10547-0.16406-0.15234-0.26172-0.23437-0.11719-0.10547-0.21094-0.18359-0.35938-0.24609-0.089844-0.035156-0.15234-0.074219-0.24609-0.089844-0.039062-0.003906-0.0625-0.050781-0.10156-0.054688l-5.6523-0.60937c-0.15234-0.015626-0.27344 0.09375-0.41406 0.125-0.15234 0.027343-0.29688-0.023438-0.4375 0.054687l-11.16 6.4414c-0.039063 0.023438-0.039063 0.074219-0.074219 0.10156-0.10547 0.066406-0.14062 0.16406-0.21875 0.25391-0.11328 0.11719-0.19531 0.21094-0.25781 0.35938-0.039062 0.09375-0.074218 0.15625-0.09375 0.25391-0.003906 0.039063-0.050781 0.0625-0.054687 0.10156-0.011719 0.10156 0.074219 0.16797 0.078125 0.26172 0.011718 0.10156-0.054688 0.18359-0.027344 0.28516l8.0547 27.648-136.7 78.918-0.73437-4.543c0-0.023437-0.027344-0.035156-0.035157-0.054687-0.003906-0.023438 0.011719-0.042969 0.003907-0.066407l-1.6953-6.7031c-0.003906-0.023438-0.027344-0.027344-0.035156-0.050782-0.003907-0.015625 0.003906-0.035156 0-0.054687l-2.2852-6.7461c-0.003906-0.023437-0.027343-0.023437-0.039062-0.042969-0.003906-0.015625 0.003906-0.039062 0-0.054687l-2.8555-6.7266c-0.003906-0.015625-0.027343-0.023437-0.039062-0.039062s0-0.039063-0.003907-0.054688l-3.375-6.5742c-0.003906-0.015626-0.027343-0.015626-0.039062-0.035157-0.011719-0.015625 0-0.039062-0.003906-0.054687l-3.8398-6.332c-0.011719-0.015624-0.035156-0.015624-0.042969-0.035156-0.003906-0.015625 0-0.035156-0.011719-0.050781l-4.25-5.9922c-0.011718-0.015626-0.035156-0.011719-0.042968-0.027344-0.011719-0.015625 0-0.039063-0.015625-0.054688l-4.5977-5.5547c-0.011718-0.015625-0.035156-0.011719-0.050781-0.027344s-0.003906-0.039063-0.023437-0.054687l-4.8711-5.0273c-0.015625-0.015625-0.042969-0.011719-0.0625-0.027344-0.015625-0.015625-0.011719-0.039062-0.027344-0.054688l-5.0781-4.4297c-0.015625-0.015625-0.042969-0.003906-0.0625-0.023437-0.015625-0.011719-0.011719-0.039063-0.035156-0.054688l-5.1875-3.7617c-0.023437-0.015625-0.050781-0.003906-0.078125-0.015625-0.023438-0.015625-0.015625-0.050781-0.042969-0.0625l-4.918-2.8633-10.254-18.02c-0.015625-0.027344-0.054687-0.027344-0.074218-0.0625-0.015626-0.023438 0-0.054688-0.023438-0.085938l-12.473-16.648c-0.023438-0.027344-0.0625-0.023438-0.085938-0.050781-0.023437-0.027344-0.011718-0.066407-0.039062-0.09375l-13.926-14.219c-0.027343-0.027344-0.074218-0.015626-0.10547-0.042969-0.027344-0.027344-0.023438-0.074219-0.054688-0.09375l-14.758-11.121c-0.039063-0.027344-0.089844-0.011719-0.125-0.035156-0.035156-0.023438-0.042969-0.078125-0.085938-0.10156l-14.887-7.5273c-0.050782-0.027343-0.11328 0.003907-0.16406-0.011718-0.050781-0.023438-0.074219-0.085938-0.12891-0.10156l-13.316-3.3164c-0.003906 0-0.011718 0.003906-0.023437 0-0.003906 0-0.011719-0.011719-0.015625-0.011719l-1.3594-0.29688c-0.066406-0.015625-0.11719 0.039063-0.17969 0.035157-0.0625-0.003907-0.11328-0.074219-0.17969-0.066407l-10.758 0.46875zm-4.5156 189.89-0.93359-0.10156 7.0508-4.0703 0.92969 0.10156zm10.613-2.8906 6.8945 23.676v0.003907l0.65625 2.25-8.6523 5.0195-7.5586-25.957zm-11.391 5.6328 7.5078 25.801-2.6445-0.29688-7.5156-25.793zm9.2852 28.812c0.050781 0.003906 0.10547 0.011718 0.15234 0.011718h0.003907 0.003906c0.11719 0 0.25391-0.015624 0.37891-0.054687 0.042969-0.011719 0.054688-0.0625 0.10156-0.078125 0.074219-0.027344 0.14063-0.023438 0.21094-0.0625l11.148-6.4609c0.11719-0.066406 0.14062-0.20312 0.23047-0.29687 0.12891-0.13281 0.24609-0.24219 0.32031-0.41406 0.066406-0.16797 0.054687-0.32422 0.054687-0.50781 0-0.12891 0.078125-0.24609 0.042969-0.375l-0.65625-2.2578 32.133-18.57 63.285 36.539-238.53 137.7-136.69-78.926 122.74 13.609c0.050781 0.011719 0.10156 0.011719 0.15234 0.011719 0.074219 0 0.14453-0.003907 0.22266-0.015626 0.050781-0.011718 0.074219-0.0625 0.125-0.078124 0.11719-0.027344 0.24219-0.027344 0.35156-0.09375l139.02-80.258zm46.938-30.688 8.3477-4.8086 63.281 36.527-8.3477 4.8203zm-369.07 82.434-2.1445-6.7266-1.5273-6.5391-0.93359-6.4453-0.28516-6.0664 0.34766-5.6992 0.95312-5.2461 1.5586-4.6211 2.1016-4.0039 2.6484-3.3555 3.0625-2.5977 3.6797-1.9609c0.0625-0.035157 0.066407-0.11328 0.11719-0.14453 0.15625-0.11328 0.24219-0.24609 0.33984-0.41016 0.089844-0.14453 0.17188-0.26172 0.20312-0.42578 0.011719-0.035156 0.023437-0.054688 0.027343-0.089844 0.003907-0.039062 0.039063-0.054687 0.042969-0.09375l0.003907-0.16406c0-0.011719-0.011719-0.015625-0.011719-0.027344s0.011719-0.023438 0.011719-0.035156l0.11328-16.844 3.2148-14.598 6.0977-11.574 8.6914-8.1602 10.879-4.4258 12.426-0.54297 1.1719 0.25781h0.003906l13.121 3.2656 14.629 7.3984 14.566 10.977 13.805 14.094 12.348 16.48 10.398 18.285c0.12891 0.23047 0.32031 0.40234 0.53906 0.52734l5.1523 2.9961 5.0977 3.6953 4.9766 4.3398 4.8164 4.9727 4.4961 5.4375 4.1992 5.9258 3.8086 6.2812 3.3164 6.4531 2.8125 6.625 2.25 6.6641 1.668 6.5898 0.75781 4.6602-123.78-13.719-3.7812-0.41406-45.562-5.0586zm189.62 239.96-159.26-91.965-26.965-138.01 186.22 107.52v122.46zm1.4023-124.89-183.11-105.72 39.457 4.3789 1.9922 1.1406s0 0.003906 0.003907 0.003906l140.94 81.375h0.003906c0.21094 0.11719 0.45312 0.18359 0.69531 0.18359 0.24219 0 0.48047-0.066407 0.69531-0.18359h0.003906l241.33-139.32 11.156-6.4414c0.011718-0.003907 0.003906-0.023438 0.015624-0.027344 0.19531-0.11719 0.37109-0.27344 0.49219-0.48828 0.035156-0.0625 0-0.125 0.027344-0.18359 0.074218-0.17188 0.066406-0.33203 0.066406-0.51562s0.003906-0.33984-0.066406-0.51562c-0.027344-0.0625 0.003906-0.125-0.027344-0.18359-0.066406-0.11328-0.19531-0.12891-0.28516-0.21875-0.09375-0.09375-0.11328-0.23047-0.22266-0.29688l-63.984-36.938 15.953-9.1992 82.02 47.348zm261.04-25.023-259.65 149.91-0.003906-122.46 286.61-165.47z" />
        <use x="70" y="644" xlink:href="#w" />
        <use x="90.550781" y="644" xlink:href="#a" />
        <use x="104.359375" y="644" xlink:href="#b" />
        <use x="123.347656" y="644" xlink:href="#e" />
        <use x="142.242188" y="644" xlink:href="#d" />
        <use x="155.628906" y="644" xlink:href="#b" />
        <use x="174.617188" y="644" xlink:href="#j" />
        <use x="204.410156" y="644" xlink:href="#f" />
        <use x="224.453125" y="644" xlink:href="#i" />
        <use x="252.453125" y="644" xlink:href="#h" />
        <use x="270.292969" y="644" xlink:href="#v" />
        <use x="279.890625" y="644" xlink:href="#g" />
        <use x="299.824219" y="644" xlink:href="#u" />
        <use x="309.421875" y="644" xlink:href="#t" />
        <use x="326.085938" y="644" xlink:href="#e" />
        <use x="354.730469" y="644" xlink:href="#s" />
        <use x="365.148438" y="644" xlink:href="#f" />
        <use x="385.191406" y="644" xlink:href="#c" />
        <use x="404.429688" y="644" xlink:href="#a" />
        <use x="418.234375" y="644" xlink:href="#a" />
        <use x="432.046875" y="644" xlink:href="#e" />
        <use x="70" y="672" xlink:href="#r" />
        <use x="82.183594" y="672" xlink:href="#a" />
        <use x="95.992188" y="672" xlink:href="#c" />
        <use x="115.226562" y="672" xlink:href="#q" />
        <use x="154.152344" y="672" xlink:href="#d" />
        <use x="167.535156" y="672" xlink:href="#p" />
        <use x="187.46875" y="672" xlink:href="#b" />
        <use x="216.207031" y="672" xlink:href="#o" />
        <use x="239.640625" y="672" xlink:href="#c" />
        <use x="258.878906" y="672" xlink:href="#g" />
        <use x="278.8125" y="672" xlink:href="#n" />
        <use x="308.492188" y="672" xlink:href="#m" />
        <use x="329.015625" y="672" xlink:href="#a" />
        <use x="342.820312" y="672" xlink:href="#c" />
        <use x="362.058594" y="672" xlink:href="#l" />
        <use x="371.65625" y="672" xlink:href="#b" />
        <use x="390.648438" y="672" xlink:href="#k" />
        <use x="407.242188" y="672" xlink:href="#d" />
    </g>
</svg>