<?xml version="1.0" encoding="UTF-8"?>
<svg width="700pt" height="700pt" version="1.1" viewBox="0 0 700 550" xmlns="http://www.w3.org/2000/svg"
    fill="currentColor">
    <path
        d="m103.85 87.805c-13.227 23.512-20.574 48.984-22.043 78.375h536.88c-1.9609-29.391-9.3086-54.863-22.535-78.375-14.695-26.453-37.23-50.453-67.602-73.969h-357.1c-30.371 23.512-52.902 47.516-67.602 73.969zm-26.453-14.695m-26.453 93.07c1.9609-34.781 10.777-65.152 26.453-93.07 11.758-21.062 27.434-40.656 47.516-59.273h-15.676c-45.555 18.125-72.988 38.699-88.664 64.66-14.207 23.023-19.105 51.926-20.574 87.684zm0 385.52v-355.14h-50.945v355.14zm364.94-289.01v-66.129h-131.77v66.129c0 18.125 7.3477 34.289 19.594 46.535 11.758 11.758 28.41 19.105 46.535 19.105s34.289-7.3477 46.535-19.105c11.758-12.246 19.105-28.41 19.105-46.535zm-65.641-30.859c16.656 0 30.371 13.715 30.371 30.859 0 16.656-13.715 30.371-30.371 30.371-17.145 0-30.371-13.715-30.371-30.371 0-17.145 13.227-30.859 30.371-30.859zm268.93 319.88v-355.14h-172.92v66.129c0 26.453-10.777 50.453-27.922 68.09-17.633 17.145-41.637 27.922-68.09 27.922-26.453 0-50.945-10.777-68.09-27.922-17.633-17.633-28.41-41.637-28.41-68.09v-66.129h-172.43v355.14zm80.824-355.14h-50.453v355.14h50.453zm-76.906-123.44c15.184 27.922 24.004 58.293 25.961 93.07h50.945c-0.98047-35.758-6.3672-64.66-20.574-87.684-15.676-25.961-42.617-46.535-88.172-64.66h-15.676c19.594 18.613 35.27 38.207 47.516 59.273z"
        fill-rule="evenodd" />
</svg>