<?xml version="1.0" encoding="UTF-8"?>
<svg width="700pt" height="550pt" version="1.1" viewBox="0 0 700 550" xmlns="http://www.w3.org/2000/svg"
    fill="currentColor">
    <g fill-rule="evenodd">
        <path
            d="m233.33 396.67 70-163.34 163.34-70-70 163.34zm116.67-93.336c-12.887 0-23.332-10.445-23.332-23.332s10.445-23.332 23.332-23.332 23.332 10.445 23.332 23.332-10.445 23.332-23.332 23.332z" />
        <path
            d="m350 536.67c141.75 0 256.67-114.91 256.67-256.67s-114.91-256.67-256.67-256.67-256.67 114.91-256.67 256.67 114.91 256.67 256.67 256.67zm210-256.67c0 115.98-94.02 210-210 210s-210-94.02-210-210 94.02-210 210-210 210 94.02 210 210z" />
    </g>
</svg>