<?xml version="1.0" encoding="UTF-8"?>
<svg width="700pt" height="700pt" version="1.1" viewBox="0 0 700 550" fill="currentColor"
    xmlns="http://www.w3.org/2000/svg" xmlns:xlink="http://www.w3.org/1999/xlink">
    <defs>
        <symbol id="m" overflow="visible">
            <path
                d="m29.312-1.75c-1.5117 0.78125-3.0898 1.3711-4.7344 1.7656-1.6367 0.40625-3.3398 0.60938-5.1094 0.60938-5.3125 0-9.5273-1.4844-12.641-4.4531-3.1055-2.9688-4.6562-7-4.6562-12.094s1.5508-9.125 4.6562-12.094c3.1133-2.9688 7.3281-4.4531 12.641-4.4531 1.7695 0 3.4727 0.19922 5.1094 0.59375 1.6445 0.39844 3.2227 0.99219 4.7344 1.7812v6.5938c-1.5312-1.0391-3.0391-1.8008-4.5156-2.2812-1.4805-0.48828-3.0391-0.73438-4.6719-0.73438-2.9375 0-5.2461 0.94531-6.9219 2.8281-1.6797 1.875-2.5156 4.4648-2.5156 7.7656 0 3.293 0.83594 5.8828 2.5156 7.7656 1.6758 1.875 3.9844 2.8125 6.9219 2.8125 1.6328 0 3.1914-0.23828 4.6719-0.71875 1.4766-0.48828 2.9844-1.2539 4.5156-2.2969z" />
        </symbol>
        <symbol id="c" overflow="visible">
            <path
                d="m21.453-17.406c-0.67969-0.3125-1.3516-0.53906-2.0156-0.6875-0.65625-0.15625-1.3203-0.23438-1.9844-0.23438-1.9688 0-3.4844 0.63281-4.5469 1.8906-1.0547 1.2617-1.5781 3.0703-1.5781 5.4219v11.016h-7.6562v-23.922h7.6562v3.9219c0.97656-1.5625 2.1016-2.7031 3.375-3.4219 1.2812-0.71875 2.8125-1.0781 4.5938-1.0781 0.25 0 0.52344 0.011719 0.82812 0.03125 0.30078 0.023438 0.73438 0.070312 1.2969 0.14062z" />
        </symbol>
        <symbol id="d" overflow="visible">
            <path
                d="m27.562-12.031v2.1875h-17.891c0.1875 1.793 0.83203 3.1367 1.9375 4.0312 1.1133 0.89844 2.6719 1.3438 4.6719 1.3438 1.6016 0 3.25-0.23438 4.9375-0.70312 1.6875-0.47656 3.4219-1.2031 5.2031-2.1719v5.8906c-1.8047 0.6875-3.6094 1.2031-5.4219 1.5469-1.8125 0.35156-3.6211 0.53125-5.4219 0.53125-4.3359 0-7.7031-1.0977-10.109-3.2969-2.3984-2.207-3.5938-5.2969-3.5938-9.2656 0-3.9062 1.1758-6.9727 3.5312-9.2031 2.3633-2.2383 5.6094-3.3594 9.7344-3.3594 3.7578 0 6.7695 1.1367 9.0312 3.4062 2.2578 2.2617 3.3906 5.2812 3.3906 9.0625zm-7.8594-2.5312c0-1.457-0.42969-2.6289-1.2812-3.5156-0.84375-0.89453-1.9492-1.3438-3.3125-1.3438-1.4922 0-2.6992 0.41797-3.625 1.25-0.91797 0.83594-1.4922 2.0391-1.7188 3.6094z" />
        </symbol>
        <symbol id="b" overflow="visible">
            <path
                d="m14.391-10.766c-1.5938 0-2.793 0.27344-3.5938 0.8125-0.80469 0.54297-1.2031 1.3398-1.2031 2.3906 0 0.96875 0.32031 1.7305 0.96875 2.2812 0.64453 0.54297 1.5469 0.8125 2.7031 0.8125 1.4375 0 2.6445-0.51562 3.625-1.5469 0.98828-1.0312 1.4844-2.3203 1.4844-3.875v-0.875zm11.688-2.8906v13.656h-7.7031v-3.5469c-1.0312 1.4492-2.1875 2.5078-3.4688 3.1719s-2.8398 1-4.6719 1c-2.4805 0-4.4961-0.72266-6.0469-2.1719-1.543-1.4453-2.3125-3.3203-2.3125-5.625 0-2.8125 0.96094-4.8672 2.8906-6.1719 1.9375-1.3125 4.9688-1.9688 9.0938-1.9688h4.5156v-0.60938c0-1.207-0.48047-2.0938-1.4375-2.6562-0.94922-0.5625-2.4375-0.84375-4.4688-0.84375-1.6367 0-3.1562 0.16797-4.5625 0.5-1.4062 0.32422-2.7188 0.8125-3.9375 1.4688v-5.8281c1.6445-0.40625 3.2891-0.70703 4.9375-0.90625 1.6562-0.20703 3.3047-0.3125 4.9531-0.3125 4.3203 0 7.4375 0.85547 9.3438 2.5625 1.9141 1.6992 2.875 4.4609 2.875 8.2812z" />
        </symbol>
        <symbol id="a" overflow="visible">
            <path
                d="m12.031-30.719v6.7969h7.875v5.4688h-7.875v10.141c0 1.1172 0.21875 1.8711 0.65625 2.2656 0.4375 0.38672 1.3125 0.57812 2.625 0.57812h3.9375v5.4688h-6.5625c-3.0234 0-5.1641-0.62891-6.4219-1.8906-1.2617-1.2578-1.8906-3.3984-1.8906-6.4219v-10.141h-3.7969v-5.4688h3.7969v-6.7969z" />
        </symbol>
        <symbol id="i" overflow="visible">
            <path
                d="m19.953-20.422v-12.812h7.6875v33.234h-7.6875v-3.4531c-1.0547 1.4062-2.2148 2.4375-3.4844 3.0938-1.2734 0.65625-2.7422 0.98438-4.4062 0.98438-2.9492 0-5.3711-1.1719-7.2656-3.5156-1.8867-2.3438-2.8281-5.3594-2.8281-9.0469s0.94141-6.7031 2.8281-9.0469c1.8945-2.3438 4.3164-3.5156 7.2656-3.5156 1.6562 0 3.1172 0.33594 4.3906 1 1.2812 0.65625 2.4453 1.6836 3.5 3.0781zm-5.0469 15.484c1.6445 0 2.8945-0.59766 3.75-1.7969 0.86328-1.1953 1.2969-2.9297 1.2969-5.2031 0-2.2812-0.43359-4.0195-1.2969-5.2188-0.85547-1.1953-2.1055-1.7969-3.75-1.7969-1.625 0-2.8711 0.60156-3.7344 1.7969-0.85547 1.1992-1.2812 2.9375-1.2812 5.2188 0 2.2734 0.42578 4.0078 1.2812 5.2031 0.86328 1.1992 2.1094 1.7969 3.7344 1.7969z" />
        </symbol>
        <symbol id="h" overflow="visible">
            <path
                d="m16.406-4.9375c1.6328 0 2.8828-0.59766 3.75-1.7969 0.86328-1.1953 1.2969-2.9297 1.2969-5.2031 0-2.2812-0.43359-4.0195-1.2969-5.2188-0.86719-1.1953-2.1172-1.7969-3.75-1.7969-1.6367 0-2.8906 0.60547-3.7656 1.8125-0.875 1.1992-1.3125 2.9336-1.3125 5.2031 0 2.2617 0.4375 3.9961 1.3125 5.2031 0.875 1.1992 2.1289 1.7969 3.7656 1.7969zm-5.0781-15.484c1.0508-1.3945 2.2188-2.4219 3.5-3.0781 1.2812-0.66406 2.7539-1 4.4219-1 2.9453 0 5.3672 1.1719 7.2656 3.5156 1.8945 2.3438 2.8438 5.3594 2.8438 9.0469s-0.94922 6.7031-2.8438 9.0469c-1.8984 2.3438-4.3203 3.5156-7.2656 3.5156-1.668 0-3.1406-0.33594-4.4219-1s-2.4492-1.6914-3.5-3.0781v3.4531h-7.6562v-33.234h7.6562z" />
        </symbol>
        <symbol id="g" overflow="visible">
            <path
                d="m0.53125-23.922h7.6562l6.4219 16.234 5.4688-16.234h7.6562l-10.062 26.188c-1.0117 2.6641-2.1953 4.5234-3.5469 5.5781-1.3438 1.0625-3.1211 1.5938-5.3281 1.5938h-4.4219v-5.0156h2.3906c1.3008 0 2.2422-0.21094 2.8281-0.625 0.59375-0.40625 1.0547-1.1484 1.3906-2.2188l0.20312-0.65625z" />
        </symbol>
        <symbol id="f" overflow="visible">
            <path
                d="m26.219-30.891v6.75c-1.7617-0.78125-3.4766-1.3672-5.1406-1.7656-1.668-0.40625-3.2422-0.60938-4.7188-0.60938-1.9609 0-3.4141 0.27344-4.3594 0.8125-0.9375 0.54297-1.4062 1.3867-1.4062 2.5312 0 0.85547 0.31641 1.5234 0.95312 2 0.63281 0.46875 1.7852 0.875 3.4531 1.2188l3.5 0.70312c3.5391 0.71875 6.0625 1.8047 7.5625 3.25 1.5 1.4492 2.25 3.5117 2.25 6.1875 0 3.5234-1.0469 6.1406-3.1406 7.8594-2.0859 1.7188-5.2734 2.5781-9.5625 2.5781-2.0234 0-4.0547-0.19531-6.0938-0.57812-2.0312-0.38281-4.0625-0.95703-6.0938-1.7188v-6.9375c2.0312 1.0859 3.9922 1.9023 5.8906 2.4531 1.9062 0.54297 3.7422 0.8125 5.5156 0.8125 1.7891 0 3.1602-0.29688 4.1094-0.89062 0.95703-0.60156 1.4375-1.457 1.4375-2.5625 0-1-0.32422-1.7695-0.96875-2.3125-0.64844-0.53906-1.9375-1.0234-3.875-1.4531l-3.1875-0.70312c-3.1875-0.6875-5.5234-1.7734-7-3.2656-1.4688-1.5-2.2031-3.5156-2.2031-6.0469 0-3.1758 1.0234-5.6172 3.0781-7.3281 2.0508-1.707 5-2.5625 8.8438-2.5625 1.75 0 3.5508 0.13281 5.4062 0.39062 1.8516 0.26172 3.7695 0.65625 5.75 1.1875z" />
        </symbol>
        <symbol id="l" overflow="visible">
            <path
                d="m4.0156-31.891h8.2188v19.109c0 2.6367 0.42969 4.5234 1.2969 5.6562 0.86328 1.1367 2.2695 1.7031 4.2188 1.7031 1.9688 0 3.3789-0.56641 4.2344-1.7031 0.86328-1.1328 1.2969-3.0195 1.2969-5.6562v-19.109h8.2344v19.109c0 4.5234-1.1367 7.8867-3.4062 10.094-2.2617 2.2109-5.7148 3.3125-10.359 3.3125-4.625 0-8.0742-1.1016-10.344-3.3125-2.2617-2.207-3.3906-5.5703-3.3906-10.094z" />
        </symbol>
        <symbol id="e" overflow="visible">
            <path
                d="m11.328-3.4531v12.547h-7.6562v-33.016h7.6562v3.5c1.0508-1.3945 2.2188-2.4219 3.5-3.0781 1.2812-0.66406 2.7539-1 4.4219-1 2.9453 0 5.3672 1.1719 7.2656 3.5156 1.8945 2.3438 2.8438 5.3594 2.8438 9.0469s-0.94922 6.7031-2.8438 9.0469c-1.8984 2.3438-4.3203 3.5156-7.2656 3.5156-1.668 0-3.1406-0.33594-4.4219-1s-2.4492-1.6914-3.5-3.0781zm5.0781-15.5c-1.6367 0-2.8906 0.60547-3.7656 1.8125-0.875 1.1992-1.3125 2.9336-1.3125 5.2031 0 2.2617 0.4375 3.9961 1.3125 5.2031 0.875 1.1992 2.1289 1.7969 3.7656 1.7969 1.6328 0 2.8828-0.59766 3.75-1.7969 0.86328-1.1953 1.2969-2.9297 1.2969-5.2031 0-2.2812-0.43359-4.0195-1.2969-5.2188-0.86719-1.1953-2.1172-1.7969-3.75-1.7969z" />
        </symbol>
        <symbol id="k" overflow="visible">
            <path
                d="m32.688-2.375c-2.0547 1-4.1836 1.75-6.3906 2.25-2.2109 0.5-4.4844 0.75-6.8281 0.75-5.3125 0-9.5273-1.4844-12.641-4.4531-3.1055-2.9688-4.6562-7-4.6562-12.094 0-5.1328 1.5781-9.1758 4.7344-12.125 3.1641-2.9453 7.5-4.4219 13-4.4219 2.125 0 4.1562 0.19922 6.0938 0.59375 1.9453 0.39844 3.7852 0.99219 5.5156 1.7812v6.5938c-1.7812-1.0078-3.5547-1.7656-5.3125-2.2656-1.7617-0.5-3.5273-0.75-5.2969-0.75-3.2734 0-5.793 0.91797-7.5625 2.75-1.7734 1.8359-2.6562 4.4492-2.6562 7.8438 0 3.375 0.85156 5.9844 2.5625 7.8281 1.707 1.8359 4.1328 2.75 7.2812 2.75 0.85156 0 1.6445-0.050781 2.375-0.15625 0.73828-0.10156 1.3984-0.26953 1.9844-0.5v-6.2031h-5.0312v-5.5h12.828z" />
        </symbol>
        <symbol id="j" overflow="visible">
            <path
                d="m27.734-14.562v14.562h-7.7031v-11.109c0-2.0938-0.046875-3.5312-0.14062-4.3125-0.085937-0.78125-0.24219-1.3594-0.46875-1.7344-0.30469-0.5-0.71094-0.88281-1.2188-1.1562-0.51172-0.28125-1.0938-0.42188-1.75-0.42188-1.5938 0-2.8516 0.61719-3.7656 1.8438-0.90625 1.2305-1.3594 2.9375-1.3594 5.125v11.766h-7.6562v-33.234h7.6562v12.812c1.1445-1.3945 2.3633-2.4219 3.6562-3.0781 1.3008-0.66406 2.7383-1 4.3125-1 2.7578 0 4.8516 0.85156 6.2812 2.5469 1.4375 1.6875 2.1562 4.1523 2.1562 7.3906z" />
        </symbol>
    </defs>
    <g>
        <path
            d="m533.75 498.75h-8.75v-26.25c0-2.3203-0.92188-4.5469-2.5625-6.1875s-3.8672-2.5625-6.1875-2.5625h-26.25v-288.98c11.008-8.168 17.5-21.066 17.5-34.773s-6.4922-26.605-17.5-34.773v-26.477h8.75c2.8125 0 5.4531-1.3516 7.0977-3.6328 1.6484-2.2812 2.0938-5.2148 1.207-7.8828l-17.5-52.5c-1.1914-3.5742-4.5352-5.9844-8.3047-5.9844h-35c-3.7695 0-7.1133 2.4102-8.3047 5.9844l-17.5 52.5c-0.88672 2.668-0.44141 5.6016 1.207 7.8828 1.6445 2.2812 4.2852 3.6328 7.0977 3.6328h8.75v26.477c-3.2227 2.4336-6.0898 5.3008-8.5234 8.5234h-105.23v-35h8.75c2.3203 0 4.5469-0.92188 6.1875-2.5625s2.5625-3.8672 2.5625-6.1875v-35c0-2.3203-0.92188-4.5469-2.5625-6.1875s-3.8672-2.5625-6.1875-2.5625h-105c-4.832 0-8.75 3.918-8.75 8.75v35c0 2.3203 0.92188 4.5469 2.5625 6.1875s3.8672 2.5625 6.1875 2.5625h8.75v35h-52.5c-9.3789 0-18.043 5.0039-22.734 13.125-4.6875 8.1211-4.6875 18.129 0 26.25 4.6914 8.1211 13.355 13.125 22.734 13.125h52.5v12.25c-22.398 12.934-37.93 35.113-42.422 60.582-4.4883 25.473 2.5195 51.625 19.145 71.438 16.625 19.816 41.164 31.258 67.027 31.258s50.402-11.441 67.027-31.258c16.625-19.812 23.633-45.965 19.145-71.438-4.4922-25.469-20.023-47.648-42.422-60.582v-12.25h105.23c2.4336 3.2227 5.3008 6.0898 8.5234 8.5234v288.98h-26.25c-4.832 0-8.75 3.918-8.75 8.75v26.25h-8.75c-4.832 0-8.75 3.918-8.75 8.75v26.25h-43.75v-43.75c0-2.3203-0.92188-4.5469-2.5625-6.1875s-3.8672-2.5625-6.1875-2.5625h-43.75v-17.852c9.5742-0.81641 18.492-5.207 24.977-12.297 6.4844-7.0938 10.062-16.363 10.023-25.973 0.046875-16.82-6.6367-32.957-18.566-44.809l-18.996-19.004v-0.003906c-2.5039-2.5-6.2656-3.25-9.5352-1.8945-3.2695 1.3555-5.4023 4.543-5.4023 8.082v10.5c0 3.0898-0.86328 6.1211-2.4922 8.7461-1.6289 2.6289-3.9531 4.75-6.7227 6.1289l-6.8945 3.4375c-9.8281 4.918-16.691 14.258-18.453 25.102-1.7578 10.848 1.8008 21.879 9.5742 29.648 6.7383 6.7305 15.535 11.008 24.988 12.152v18.035h-43.75c-4.832 0-8.75 3.918-8.75 8.75v43.75h-52.5v17.5h367.5c2.3203 0 4.5469-0.92188 6.1875-2.5625s2.5625-3.8672 2.5625-6.1875v-35c0-2.3203-0.92188-4.5469-2.5625-6.1875s-3.8672-2.5625-6.1875-2.5625zm-280-71.75c0-3.0898 0.86328-6.1211 2.4922-8.7461 1.6289-2.6289 3.9531-4.75 6.7227-6.1289l6.8945-3.4375c8.6133-4.2773 15.012-12 17.613-21.254l5.3359 5.3359c8.6172 8.5625 13.457 20.211 13.441 32.359-0.003906 5.5977-2.2305 10.969-6.1914 14.93-3.9609 3.9609-9.332 6.1875-14.93 6.1914h-8.4102c-6.7852 0.019531-13.297-2.6758-18.086-7.4805-3.125-3.1211-4.8828-7.3555-4.8828-11.77zm-17.5 71.75h87.5v35h-87.5zm227.5-332.5c-6.9609 0-13.641-2.7656-18.562-7.6875s-7.6875-11.602-7.6875-18.562 2.7656-13.641 7.6875-18.562 11.602-7.6875 18.562-7.6875 13.641 2.7656 18.562 7.6875 7.6875 11.602 7.6875 18.562-2.7656 13.641-7.6875 18.562-11.602 7.6875-18.562 7.6875zm-11.191-140h22.383l11.672 35h-45.727zm2.4414 52.5h17.5v18.375c-5.7734-1.1797-11.727-1.1797-17.5 0zm-218.75-35h87.5v17.5h-87.5zm17.5 35h52.5v35h-52.5zm26.25 245.47c-15.543-0.027344-30.633-5.2227-42.898-14.77-12.266-9.5469-21.008-22.898-24.852-37.957 7.1016-0.51562 13.789-3.5352 18.871-8.5234l5.1289-5.1289c4.8945-4.6797 12.605-4.6797 17.5 0l5.1289 5.1289c5.7266 5.3594 13.277 8.3398 21.121 8.3398s15.395-2.9805 21.121-8.3398l5.1289-5.1289c4.8945-4.6797 12.605-4.6797 17.5 0l5.1289 5.1289c5.082 4.9883 11.77 8.0078 18.871 8.5234-3.8438 15.059-12.586 28.41-24.852 37.957-12.266 9.5469-27.355 14.742-42.898 14.77zm31.098-132.6c11.691 5.7461 21.539 14.66 28.414 25.727 6.8789 11.066 10.512 23.84 10.488 36.871-3.2773-0.015625-6.4219-1.3164-8.75-3.6211l-5.1172-5.1289c-5.6953-5.4258-13.262-8.4531-21.129-8.4531-7.8672 0-15.43 3.0273-21.125 8.4531l-5.1289 5.1289c-4.9297 4.5898-12.57 4.5898-17.5 0l-5.1172-5.1289c-5.6953-5.4258-13.262-8.4531-21.129-8.4531-7.8672 0-15.43 3.0273-21.125 8.4531l-5.1289 5.1289c-2.3281 2.3047-5.4727 3.6055-8.75 3.6211-0.023438-13.031 3.6094-25.805 10.488-36.871 6.875-11.066 16.723-19.98 28.414-25.727 2.9844-1.4883 4.8633-4.5391 4.8477-7.875v-17.5h52.5v17.5c-0.015625 3.3359 1.8633 6.3867 4.8477 7.875zm-127.35-42.875c-4.832 0-8.75-3.918-8.75-8.75s3.918-8.75 8.75-8.75h237.12c-1.1797 5.7734-1.1797 11.727 0 17.5zm271.25 34.125c5.7734 1.1797 11.727 1.1797 17.5 0v280.88h-17.5zm-35 298.38h87.5v17.5h-87.5zm105 52.5h-122.5v-17.5h122.5z" />
        <use x="70" y="691.25" xlink:href="#m" />
        <use x="102.109375" y="691.25" xlink:href="#c" />
        <use x="123.683594" y="691.25" xlink:href="#d" />
        <use x="153.355469" y="691.25" xlink:href="#b" />
        <use x="182.878906" y="691.25" xlink:href="#a" />
        <use x="203.792969" y="691.25" xlink:href="#d" />
        <use x="233.464844" y="691.25" xlink:href="#i" />
        <use x="280.011719" y="691.25" xlink:href="#h" />
        <use x="311.328125" y="691.25" xlink:href="#g" />
        <use x="355.078125" y="691.25" xlink:href="#f" />
        <use x="386.589844" y="691.25" xlink:href="#a" />
        <use x="407.503906" y="691.25" xlink:href="#b" />
        <use x="437.027344" y="691.25" xlink:href="#c" />
        <use x="458.601562" y="691.25" xlink:href="#a" />
        <use x="494.746094" y="691.25" xlink:href="#l" />
        <use x="530.273438" y="691.25" xlink:href="#e" />
        <use x="576.820312" y="691.25" xlink:href="#k" />
        <use x="612.730469" y="691.25" xlink:href="#c" />
        <use x="634.304688" y="691.25" xlink:href="#b" />
        <use x="663.828125" y="691.25" xlink:href="#e" />
        <use x="695.148438" y="691.25" xlink:href="#j" />
    </g>
</svg>