<?xml version="1.0" encoding="UTF-8"?>
<svg width="1200pt" height="1200pt" version="1.1" viewBox="0 0 1200 1000" xmlns="http://www.w3.org/2000/svg"
    fill="currentColor">
    <g>
        <path
            d="m263.95 302.95-42.387 68.676c-0.078125 0.003906-0.48438-0.0625-0.53516 0s0 0.44141 0 0.53516v28.973c10.426 9.4453 17.168 23.523 17.168 39.164 0 15.645-6.7461 29.719-17.168 39.164v492.52c0 0.1875 0.37891 0.53516 0.53516 0.53516h85.305c0.15625 0 0.53906-0.34766 0.53516-0.53516v-497.35c-7.875-9.1211-12.875-21.113-12.875-34.336 0-13.227 5-25.215 12.875-34.336v-33.801c0-0.09375-0.48438-0.47266-0.53516-0.53516l-42.922-68.676z" />
        <path
            d="m387.64 231.48-42.387 68.676c-0.078125 0.003906-0.48438-0.0625-0.53516 0s0 0.44141 0 0.53516v28.973c10.426 9.4453 17.168 23.523 17.168 39.164 0 15.645-6.7461 29.719-17.168 39.164v564.52c0 0.1875 0.37891 0.53516 0.53516 0.53516h85.305c0.15625 0 0.53906-0.34766 0.53516-0.53516v-569.35c-7.875-9.1211-12.875-21.113-12.875-34.336 0-13.227 5-25.215 12.875-34.336v-33.801c0-0.09375-0.48438-0.47266-0.53516-0.53516z" />
        <path
            d="m511.86 158.95-42.387 68.676c-0.078124 0.003906-0.48437-0.0625-0.53516 0-0.050781 0.0625 0 0.44141 0 0.53516v28.973c10.426 9.4453 17.168 23.523 17.168 39.164 0 15.645-6.7461 29.719-17.168 39.164v636.52c0 0.1875 0.37891 0.53516 0.53516 0.53516h85.305c0.15625 0 0.53906-0.34766 0.53516-0.53516v-641.35c-7.875-9.1211-12.875-21.113-12.875-34.336 0-13.227 5-25.215 12.875-34.336v-33.801c0-0.09375-0.48438-0.47266-0.53516-0.53516z" />
        <path
            d="m635.01 159.48-42.387 68.676c-0.078125 0.003906-0.48438-0.0625-0.53516 0-0.050782 0.0625 0 0.44141 0 0.53516v28.973c10.426 9.4453 17.168 23.523 17.168 39.164 0 15.645-6.7461 29.719-17.168 39.164v636.52c0 0.1875 0.37891 0.53516 0.53516 0.53516h85.305c0.15625 0 0.53906-0.34766 0.53516-0.53516v-641.35c-7.875-9.1211-12.875-21.113-12.875-34.336 0-13.227 5-25.215 12.875-34.336v-33.801c0-0.09375-0.48438-0.47266-0.53516-0.53516z" />
        <path
            d="m759.23 230.95-42.387 68.676c-0.078125 0.003906-0.48438-0.0625-0.53516 0s0 0.44141 0 0.53516v28.973c10.426 9.4453 17.168 23.523 17.168 39.164 0 15.645-6.7461 29.719-17.168 39.164v564.52c0 0.1875 0.37891 0.53516 0.53516 0.53516h85.305c0.15625 0 0.53906-0.34766 0.53516-0.53516v-569.35c-7.875-9.1211-12.875-21.113-12.875-34.336 0-13.227 5-25.215 12.875-34.336v-33.801c0-0.09375-0.48438-0.47266-0.53516-0.53516z" />
        <path
            d="m882.92 303.48-42.387 68.676c-0.078125 0.003906-0.48438-0.0625-0.53516 0s0 0.44141 0 0.53516v28.973c10.426 9.4453 17.168 23.523 17.168 39.164 0 15.645-6.7422 29.723-17.168 39.168v492.52c0 0.1875 0.37891 0.53516 0.53516 0.53516h85.305c0.15625 0 0.53906-0.34766 0.53516-0.53516v-497.35c-7.875-9.1211-12.875-21.113-12.875-34.336 0-13.227 5-25.215 12.875-34.336v-33.801c0-0.09375-0.48438-0.47266-0.53516-0.53516l-42.922-68.676z" />
        <path
            d="m197.35 508.97h743.92c0.058594 0 0.10547 0.066406 0.10547 0.15234v59.414c0 0.085938-0.046875 0.15234-0.10547 0.15234h-743.92c-0.058594 0-0.10938-0.066406-0.10938-0.15234v-59.414c0-0.085938 0.046875-0.15234 0.10938-0.15234z" />
        <path
            d="m197.35 835.18h744.78c0.058594 0 0.10547 0.066407 0.10547 0.15234v59.414c0 0.085937-0.046875 0.15234-0.10547 0.15234h-744.78c-0.058594 0-0.10938-0.066406-0.10938-0.15234v-59.414c0-0.085937 0.046875-0.15234 0.10938-0.15234z" />
        <path
            d="m226.1 848.19 673.92-315.04c0.054688-0.027343 0.125 0.015625 0.16016 0.089844l25.16 53.824c0.035156 0.078125 0.019531 0.15625-0.03125 0.18359l-673.92 315.04c-0.054688 0.027344-0.125-0.015625-0.16016-0.089844l-25.16-53.824c-0.035156-0.078125-0.019531-0.15625 0.035156-0.18359z" />
        <path d="m172.97 499.28h26.688v79.102h-26.688z" />
        <path d="m186 490.83c3.3242 0 6 2.6758 6 6v84c0 3.3242-2.6758 6-6 6s-6-2.6758-6-6v-84c0-3.3242 2.6758-6 6-6z" />
        <path d="m172.97 825.48h26.688v79.102h-26.688z" />
        <path d="m186 817.04c3.3242 0 6 2.6758 6 6v84c0 3.3242-2.6758 6-6 6s-6-2.6758-6-6v-84c0-3.3242 2.6758-6 6-6z" />
        <path d="m930.45 532.77h30.289v12.117h-30.289z" />
        <path
            d="m972.86 538.83c0 6.6914-5.4258 12.117-12.117 12.117-6.6914 0-12.117-5.4258-12.117-12.117s5.4258-12.117 12.117-12.117c6.6914 0 12.117 5.4258 12.117 12.117z" />
    </g>
</svg>