<?xml version="1.0" encoding="UTF-8" standalone="no"?>
<svg width="700pt" height="700pt" version="1.1" viewBox="0 0 700 700" id="svg3648" xmlns="http://www.w3.org/2000/svg"
   xmlns:svg="http://www.w3.org/2000/svg" fill="currentColor">
   <defs id="defs3576" />
   <path
      d="m 112.17297,249.49487 c 10.84786,0 19.63814,8.81546 19.63814,19.66299 0,10.84754 -8.79607,19.58512 -19.63814,19.58512 -10.84786,0 -19.66299,-8.7442 -19.66299,-19.58512 0,-10.84786 8.81545,-19.66299 19.66299,-19.66299 z M 207.27346,18.582683 c -4.7831,0.1165 -10.22005,2.847961 -16.58935,10.588888 -12.78302,15.559729 -23.04152,44.129478 -26.64041,77.364519 -2.14243,20.13524 -1.72173,41.94066 1.12622,63.74775 -63.52072,8.81546 -124.141815,55.57899 -140.089937,128.55592 -7.514588,33.44381 -4.834972,54.34289 7.411033,68.25131 12.17475,13.84462 36.343477,21.94794 74.963614,26.19966 24.37536,2.7313 16.95719,14.93192 16.22002,24.95692 -4.3624,56.33624 7.66985,87.4305 22.60242,111.42972 15.5145,25.02322 35.26812,42.73764 37.37245,71.41775 l -1.411,27.70914 c -0.64722,12.99012 -5.10024,18.36228 -20.29097,22.60241 -12.83487,3.54687 -22.13516,10.14234 -23.68275,21.15922 -1.55987,11.28796 8.64728,11.82514 15.741,11.82514 h 58.8995 c 10.03233,0 14.34288,-8.81547 17.33334,-16.05169 9.8252,-22.93214 27.06126,-69.22891 30.67341,-93.00279 37.47516,25.49544 105.94686,52.89969 151.43007,43.01601 14.43349,-3.2168 13.411,8.58896 0.95791,11.91577 -19.26864,5.20381 -35.87622,8.11639 -52.46558,24.48471 -3.75397,3.70875 -7.02262,7.9999 -7.83819,13.37206 -2.31062,14.50476 12.50482,16.05168 21.37132,16.05168 h 116.25141 c 39.78663,0 73.24205,-20.03249 98.14762,-49.77303 12.52421,-1.98702 24.7051,-5.57928 35.54651,-10.89957 71.9082,-35.177 59.55234,-125.17078 20.19486,-106.90625 -3.10032,1.44336 -5.85763,2.51772 -8.75067,3.80585 1.02911,-9.55976 1.51454,-19.06152 1.1262,-28.29735 -2.09055,-53.69503 -26.68015,-103.1516 -64.74355,-141.32601 -59.59874,-59.76609 -151.70844,-90.90511 -239.49517,-65.0733 -17.18419,5.0421 -34.21927,12.08412 -50.89977,21.41108 -4.56953,2.52419 -10.22004,-0.53722 -10.58889,-5.74099 -1.88345,-28.62045 -9.49513,-49.66369 -18.73178,-66.56952 0.15525,-0.2136 0.2589,-0.49191 0.48544,-0.69903 47.78635,-46.39453 85.6443,-111.63683 87.79832,-154.329731 0.62785,-12.342938 -0.75081,-21.947934 -3.22971,-28.731473 -2.46605,-6.711968 -5.63745,-10.362388 -9.55976,-12.29124 -1.93531,-0.919092 -4.2978,-1.51455 -7.04203,-1.559867 -8.31705,-0.161818 -20.23962,4.239465 -35.1654,15.889798 -36.90023,33.022948 -61.17118,71.210623 -73.35307,123.131073 -2.36245,10.25883 -12.50479,6.76366 -10.25881,-2.4725 8.31705,-33.82491 22.60242,-65.61182 39.46848,-92.141191 -4.89959,-28.673476 -14.07112,-49.663679 -22.88078,-58.148908 -3.65042,-3.533936 -6.60195,-4.983766 -11.42383,-4.873744 z"
      fill-rule="evenodd" id="path3578" style="stroke-width:1.65695" />
</svg>