<?xml version="1.0" encoding="UTF-8"?>
<svg width="700pt" height="700pt" version="1.1" viewBox="0 0 700 550" xmlns="http://www.w3.org/2000/svg"
    fill='currentColor'>
    <g fill-rule="evenodd">
        <path
            d="m581.31 74.098c0 3.4375-2.7852 6.2227-6.2227 6.2227s-6.2227-2.7852-6.2227-6.2227 2.7852-6.2266 6.2227-6.2266 6.2227 2.7891 6.2227 6.2266" />
        <path
            d="m396.1 415.29c1.1016 33.191 45.777 48.277 44.969 48.082-6.7617-1.6289-12.73-4.9922-12.715-4.9297 12.453 44.348 19.848 76.086 1.168 83.801 6.9492 0.9375 14.18 0.19531 21.758-2.707-0.91016 7.7812 14.586-2.5117 59.473 20.461-3.4727-8.0898-13.086-15.844-27.473-18.766l44.281-2.5781c-9.3008-8.8047-30.219-8.875-54.93-6.0898-7.625-4.1406-11.391-9.7773-10.156-16.883 0.046876-0.26172-6.1719-27.762-6.1055-28.051 0.55469 0.83203 4.9219 12.887 6.4414 21.043 0.64844 3.5 0.56641 6.6094 0.86328 7.0039 3.6055 4.7422 9.6172 8.8047 14.652 10.527l-3.875-14.512 35.195 3.7227c8.0781-6.7539 16.148-8.0977 24.23-1.9922 3.4023-10.547-10.098-13.406-36.23-10.48 0.84375-6.8281-9.8984-8.5273-25.113-8.2773-12.121-8.8516-17.117-23.98-15.094-40.551 13.898-11.871 27.844-26.742 38.211-47.043-16.875 6.8672-33.758 10.844-50.168 12.203-17.113 1.418-33.75-0.007813-49.387-3.9727z" />
        <path
            d="m525.29 75.527c-27.855 23.98-47.23 57.996-54.121 106.73-0.035156 0.25-3.2344 35.148-3.2695 35.406-0.23828 0.10938 1.457-33.699 1.2422-33.598-23.469 11.352-43.633 25.062-62.777 42.617-0.71484-0.69531-17.715 21.055-17.41 21.898 3.7344-8.1797 8.7031-15.652 16.051-21.727l-41.141 2.8242c-34.832-80.793-64.852-144.72-149.81-157.21-67.719-1.5195-121.68 42.645-123.86 86.742 14.133-2.3633 48.77-34.926 60.324-48.844l-43.484 67.625c18.289-8.1719 44.281-50.945 65.727-51.723-35.793 33.652-45.379 65.254-65.328 84.297 23.312-13.121 50.234-48.441 69.93-39.379-21.922 21.477-51.277 56.219-42.996 70.34l53.047-41.422c-15.965 33.277-32.062 48-30.469 94.086 9.2852-2.207 15.668-42.668 32.402-52.566 0.75 29.938-8.1797 76.43-0.98438 78.688 6.0508-3.4844 11.738-12.164 13.285-27.215l12.414 49.906c7.4883 3.207 13.742-11.609 16.734-27.031 3.9297 23.488 9.2578 45.508 18.961 45.207 4.0391-9.8672 2.7617-31.062 12.094-29.598 2.6797 18.414 8.1641 34.027 14.703 38.938l4.707-14.566 11.879 24.898c4.5312-4.6992 6.7656-12.461 7.4414-22.293 3.2969 12.02 7.832 21.293 14.324 26.25 2.2891-5.7891 3.5859-14.188 3.9297-25.137l12.312 20.016 4.707-17.828c14.129 28.449 36.887 43.941 59.973 51.965 15.641 4.0312 32.355 5.4961 49.555 4.0664 16.816-1.3828 34.129-5.5508 51.41-12.77 106.43-68.086 109.27-154.67 71.949-248.4 20.852-4.7539 26.406-17.707 19.625-37.25l3.25-16.188c5.3945-3.5234 10.098-1.0117 15.566 2.9844 0.11328 0.082031-7.1719-8.8281-8.9805-13.371 6.3633 3.6875 8.8281 12.34 11.594 14.566 0.1875-6.9883-1.7773-14.855-6.0859-20.902 5.5664-6.6094 3.3008-14.336-4.6328-22.871l0.31641-12.637-5.8359-0.55469 0.91016-14.762-8.8516 7.1445c-1.2812-12.473-4.3164-23.703-9.832-33.164 0.99219 7.9414 1.1875 15.547-2.0469 21.672l-26.406-31.395c4.4922 12.582 8.9883 22.008 8.0508 35.719-6.5234-12.25-15.551-21.098-26.918-26.707l7.9141 21.832-26.094-12.566 5.2617 13.383c-21.176 13.176-12.129 28.152 9.7461 43.867zm-300.79 138.41c8.5273-5.4961 18.785-8.1914 30.219-8.4062 11.918-0.23828 25.121 2.2539 38.98 7.0859l-0.46094-1.1562c-14.008-4.8828-27.328-7.3867-39.344-7.1641-11.52 0.21484-21.859 2.9453-30.465 8.4883l1.0664 1.1562zm-9.1758-57.059c9.2109-4.2695 19.738-5.5234 31.09-4.1719 11.832 1.4102 24.574 5.6914 37.637 12.379l-0.29688-1.2031c-13.203-6.7656-26.055-11.082-37.984-12.508-11.434-1.3789-22.055-0.09375-31.34 4.2148l0.89844 1.2891zm-10.973-45.812c9.832-2.5195 20.414-1.8516 31.328 1.5391 11.387 3.5391 23.129 10.062 34.766 19.012l-0.074218-1.2344c-11.75-9.0547-23.609-15.625-35.082-19.199-11-3.4297-21.672-4.0938-31.59-1.5469l0.65625 1.4336zm191.5 216.73c14.742 2.5273 30.613 1.8516 46.961-1.5391 17.066-3.5391 34.684-10.055 52.121-19.016l-0.10938 1.2422c-17.625 9.0547-35.398 15.633-52.602 19.191-16.484 3.4375-32.477 4.0977-47.348 1.5547l0.97266-1.4336zm-19.922-18.105c14.742 2.5195 30.617 1.8516 46.969-1.5391 17.066-3.5391 34.684-10.055 52.121-19.016l-0.11328 1.2422c-17.625 9.0547-35.395 15.625-52.602 19.191-16.484 3.4375-32.477 4.0977-47.34 1.5547zm118.11-60.414c-2.8359-14.68-2.5117-30.57 0.55469-46.98 3.1797-17.125 9.3242-34.879 17.938-52.492l-1.2422 0.12109c-8.6914 17.809-14.898 35.719-18.113 52.992-3.0859 16.559-3.4219 32.57-0.55469 47.367zm8.1562 13.133c-2.8359-14.688-2.5195-30.57 0.54688-46.98 3.1875-17.125 9.3242-34.887 17.941-52.5l-1.2422 0.12109c-8.6914 17.816-14.898 35.719-18.113 52.992-3.0859 16.559-3.4219 32.57-0.55469 47.371l1.418-1.0078zm-16.289-25.344c-2.8438-14.688-2.5195-30.578 0.54688-46.98 3.1797-17.133 9.3242-34.887 17.941-52.5l-1.25 0.12109c-8.6914 17.816-14.898 35.719-18.113 52.992-3.0859 16.559-3.4219 32.57-0.55469 47.371l1.4258-1.0078zm89.195-171.58c-4.7539 0-8.6016 3.8477-8.6016 8.6016 0 4.7461 3.8477 8.5977 8.6016 8.5977 4.7461 0 8.5977-3.8477 8.5977-8.5977 0-4.7539-3.8477-8.6016-8.5977-8.6016z" />
    </g>
</svg>