<?xml version="1.0" encoding="UTF-8"?>
<svg width="1200pt" height="1200pt" version="1.1" viewBox="0 0 1200 1000" xmlns="http://www.w3.org/2000/svg"
    fill="currentColor">
    <g fill-rule="evenodd" fill="currentColor">
        <path
            d="m923.14 598.93c8.3281 8.3164 22.824 24.742 26.879 33.059 0 4.1641-12.434 10.344-18.551 14.387-8.3281 6.3008-26.82 18.672-28.906 24.852-4.1055 4.0547-8.3164 12.48 0 14.508 6.1328 2.0273 20.578 4.0547 28.906 0 6.1211-2.0273 26.867-10.453 41.316-10.453 0 18.672 2.0898 51.73 4.1641 55.883 2.0273 3.9375 10.285 2.0273 12.371-2.1367 2.0742-6.1914 14.449-16.414 18.613-18.562 4.043-4.2617 16.535-8.207 22.609 0 4.2227 8.2188 14.449 18.562 18.672 24.637 4.1641 6.4062 20.641 37.332 26.746 43.512 4.2227 4.0547 45.492 43.414 49.656 47.461 4.1055 2.1367 20.641 8.3164 22.727 0 4.1055-6.1914-2.0898-12.371-4.1641-16.535-4.1172-4.043-35.09-41.375-37.176-49.477-2.0742-6.2891-12.371-20.797-14.449-31.031 0-10.344-4.1641-43.297-4.1641-43.297h20.699c6.1797-2.0273 30.973-10.453 47.508-10.453 8.207 0 14.508 2.0156 18.551 2.0156 4.1641 0 14.449-2.0156 18.613-6.0703 2.0195-4.1523 6.2422-6.1797 6.2422-10.344 0-6.1797-8.3164-8.207-12.371-10.234-2.0742 0-20.746-6.4062-31.031-8.3164h-49.598s-39.191-47.566-45.492-53.746c-4.043-6.0703-26.746-47.449-26.746-47.449l-26.82 12.359-22.824 6.1914-6.1328 8.207-33.012 18.562-18.613 6.2891z" />
        <path
            d="m617.54 749.63c0-14.508-4.1641-20.578-8.2578-30.926-2.0273-12.48-10.344-32.953-10.344-39.254-2.0898-6.1914-2.0898-22.727 2.0742-26.762 4.1172-6.3008 8.2695-6.3008 6.2539-20.699 0-14.508-2.1367-37.223 2.0273-49.477 2.0156-10.465 22.715-22.824 26.809-24.961 4.1172-2.0273 12.371 0 10.344 6.2891 0 6.1914 0 18.672-4.1641 22.609-4.043 2.1367-6.1914 12.48-6.1914 20.797-2.0742 8.1016-12.359 70.055-10.344 78.492 0 10.234 16.535 45.434 24.793 53.531 10.344 10.344 101.27 88.945 117.74 101.32 16.523 12.371 28.957 24.852 59.93 24.852 33.012 0 26.82-8.3164 45.434-8.3164 20.578 0 76.414 12.359 96.996 14.387 22.766 4.1641 64.105 6.2891 72.301 6.2891 6.2539 0 12.48-6.2891 12.48-10.453 0-6.0703-8.3164-16.414-14.449-18.562-4.1641-2.0156-70.332-26.746-72.422-26.746-4.043-2.1484-10.234-8.3281 0-10.465 8.375-2.0273 61.969-16.414 66.191-18.445 4.1641-2.1367 18.613-10.453 18.613-18.551 0-6.4062-14.449-12.48-18.613-12.48-4.2227-2.0273-22.777-6.1914-28.906-6.1914-6.2891 0-41.316 4.1641-47.508 4.1641-6.2539 0-43.402-2.1367-43.402-2.1367s-4.1055-37.234-6.2539-41.16c0-4.1641 2.1484-10.57-6.1328-10.57-10.344 0-12.359 8.4258-14.449 12.48-4.1641 2.0156-22.766 24.84-22.766 24.84s-8.2188-14.496-12.371-18.66c-4.2109-4.1758-24.742-22.609-24.742-22.609-2.0742-2.1484-4.1641-8.3164-2.0742-12.48 2.0742-4.0547 18.613-26.879 22.609-33.07 6.2891-6.0703 37.273-41.375 41.438-43.402 4.043-4.043 4.043-12.359 6.1914-14.387 4.1055-2.0273 111.55-72.301 121.84-78.383 10.234-8.4258 35.148-20.797 37.223-33.059 2.0273-4.1641 18.445-18.672 22.668-22.824 4.1641-4.043 45.434-37.117 49.598-43.402 4.1055-6.0703 24.742-18.551 26.809-24.625 4.1641-4.1758 10.285-12.492 4.1641-18.672-6.2383-6.3008-18.613-2.1484-20.688 0-2.0898 4.1641-8.2188 14.496-12.371 18.672-2.0742 1.9062-64.105 51.504-68.148 53.52-4.1055 2.1484-10.344 8.4375-31.043 10.465-20.578 1.9062-28.957 6.0703-33 12.359-4.1055 4.0547-26.867 28.895-30.984 30.926-4.1055 2.1484-126 53.652-126 53.652s2.0742-12.254 8.3164-14.398c6.1328-2.0156 76.402-39.254 84.625-47.566 8.207-6.0703 45.492-36.996 53.641-41.16 8.375-6.2891 47.52-26.879 59.941-28.895 12.48-2.1484 30.926-4.2734 39.301-6.3008 6.1328-4.043 22.668-20.688 28.895-29.004 8.2188-10.246 14.449-16.414 26.82-22.609 12.359-4.0547 24.793-10.344 31.031-10.344 6.1328-2.0273 8.2188-8.2188 8.2188-12.371s-4.1055-20.578-4.1055-24.742c0-6.2891-4.1172-20.688-6.2539-24.852 0-4.043-8.2188-30.91-12.371-35.09-4.1641-4.1641-22.715-22.824-24.742-28.895-4.1641-6.1914-12.422-39.254-16.523-47.566-4.1641-10.344-16.535-34.98-37.285-41.27-20.52-6.1914-37.043-8.207-41.207-8.207-10.285 0-12.371 10.234-10.285 10.234 0 0-14.508-2.0156-20.699 0-6.3008 2.0273-16.535 2.0273-20.746 6.3008-6.0703 6.1797-10.234 14.398-14.449 16.523-2.0156 2.0273-20.578 8.1016-24.684 8.1016-6.3008-2.0156-12.422-10.234-18.672-6.0703-6.1328 2.1367-14.387 10.344-20.578 8.207-4.1641 0-6.2539-12.371-8.2578-12.371-8.2695-6.1914-20.641-10.344-26.879-10.344-8.2578 0-14.449 6.1797-18.613 4.1641-4.1055 0-12.371-4.1641-16.535-4.1641-2.0156 0-22.656-4.043-26.809 0-4.2227 4.1641-20.699 20.578-20.699 20.578-8.2188-2.0156-18.551-2.0156-24.742 2.1367-4.1641 4.2734-14.449 4.2734-18.562 2.1367-2.1367-2.1367-12.422 0-18.672 2.1367-4.1055 0-24.742 6.0703-28.895 6.0703-8.2578 0-22.715-6.0703-35.09-6.0703-10.344 0-14.449 8.1016-26.867 4.043-14.449-2.1367-30.984-10.465-37.176-10.465-6.1797-2.0156-20.641-3.9375-22.715-3.9375-4.1055 0-16.535-4.1641-20.641-6.2891-6.1914-4.1641-10.344-6.1914-18.551-6.1914-8.2695 0-22.824 6.1914-26.879 10.344-2.0273 4.043-16.477 18.551-18.551 20.578-4.1641 2.1367-20.746 6.3008-26.879 6.3008-6.1797 0-16.465 4.1641-22.715 6.1797-4.1641 1.9062-8.2578 8.3164-12.371 14.398-4.2109 4.1523-14.449 0-18.672 4.1523-4.1055 6.1914-8.207 12.492-10.285 12.492-2.0156 0-14.449-2.1484-18.551-2.1484-4.2227 0-16.586 6.0703-18.672 12.371 0 4.1641-8.207 14.508-18.492 16.523-8.3281 0-22.777 2.1484-26.941 12.371-4.043 10.344-10.285 12.371-16.523 14.508-6.1328 2.0273-22.668 14.508-24.742 20.578-2.0742 4.1641-8.207 16.645-10.285 22.824-10.453 4.0547-35.137 20.578-45.422 33.059-8.375 12.254-16.535 33.07-22.824 39.145-8.1602 8.3164-47.461 39.254-55.668 47.449-10.344 10.465-18.613 24.852-18.613 33.18 0 8.2188 10.285 24.742 14.449 30.926 6.1797 6.2891 24.793 33.059 24.793 43.297 0 10.332 2.0156 26.867 2.0156 37.223 2.0273 10.344 8.3164 24.852 12.434 31.031 4.043 4.0547 78.371 99.086 80.461 103.25 4.2109 4.1641 6.2891 26.867-8.1602 16.645-12.371-8.4375-43.344-31.043-53.746-39.469-16.477-8.1016-45.434-22.5-57.805-26.762-10.344-4.1641-28.895-12.371-35.09-12.371-6.2383 0-10.344 4.1641-16.523 4.1641-6.2383 0-20.699-6.1914-22.777-8.3164-4.1055 0-33-8.207-41.27-8.207-6.1719 0.007812-20.621 6.1758-20.621 12.367 0 8.2188 12.371 22.727 14.449 28.895 0 6.3008 20.641 41.27 24.793 49.715 4.1055 12.254 8.207 41.16 8.207 49.477 2.0742 8.3164 22.777 14.387 26.879 18.551 4.1055 2.0273 14.449 12.371 18.613 20.699 2.0273 8.2188 28.906 82.656 35.09 90.863 6.1914 6.1914 41.328 53.641 45.492 55.766 4.1055 4.1758 18.551 10.344 22.609 18.672 2.1367 8.1016 12.422 39.145 18.672 41.172 8.207 2.1367 61.957 20.688 68.207 22.715 8.207 4.1641 10.285 0 10.285-2.0273 0-4.1641-6.3008-12.359-8.3164-18.551-4.0547-4.1641-16.43-24.742-22.668-31.043-6.2891-4.1641 2.0742-18.672 12.359-12.254 12.312 8.1016 24.742 14.398 33.07 16.414 8.207 4.1758 20.641 6.3008 26.809 8.2188 6.2539 2.0273 16.535 14.508 24.793 18.672 6.2539 2.0273 22.777 0 30.926 2.0273 6.3008 2.1367 64.043 20.688 72.359 20.688 8.2695 0 41.328-12.359 47.52-16.523 6.1914-2.0273 8.2578-14.508-4.1172-18.672-12.422-2.0273-115.77-33.07-119.81-33.07-6.1914 0-6.1914-12.254 0-12.254 8.2578 0 24.793-4.1758 30.984-4.1758 8.2578 0 16.465-10.332 16.465-14.496 0-4.1641-6.1328-16.535-16.465-18.562-12.434-2.0156-45.434-8.207-49.598-8.207-2.0273 0-18.562 2.0156-16.535-6.3008 2.0898-8.207 16.535-10.234 18.613-10.234 4.1055-2.1367 8.2188-14.387 6.1328-18.672-2.0273-4.1641-12.359-6.1914-16.477-6.1914-4.1055 2.0273-30.973 10.465-41.258 10.465-8.2695-2.2578-24.793-10.465-31.105-14.508-8.1484-6.2891-49.414-26.988-53.578-31.043-4.1641-2.0156-6.2539-22.715 12.359-16.523 18.613 8.3164 30.984 16.523 41.219 16.523 12.434 2.1484 45.492 6.1914 55.895 8.2188 10.285 0 59.82 10.344 66 6.2891 4.2227-6.2891 10.344-18.672 10.344-24.84 0-6.1914 0-45.434-2.0156-53.746-4.1172-8.2188-20.641-49.598-24.852-55.68-4.1055-6.2891-47.52-92.879-51.562-109.52-2.0898-16.535-4.1641-51.504 0-63.984 2.0898-10.344 18.551-14.508 18.551-4.1641 2.0273 12.48 4.1172 37.223 4.1172 43.402 2.1367 8.207 12.359 53.641 16.586 59.941 4.1055 8.0898 14.449 49.477 20.641 53.641 4.1055 6.1914 35.09 22.824 43.402 24.742 8.1602 2.0273 35.027 16.645 45.434 16.645 8.1602 0 26.82-6.2891 41.27-6.2891 12.359 0 41.258-2.0273 51.613-2.0273 10.355 0 16.535-2.1367 24.852-2.1367zm375.88-390.23c0 10.234-8.3164 28.895-10.402 30.816-4.043 2.2422-12.359 4.2617-12.359-4.0547 0-6.1914 2.1367-10.344 4.2227-14.508 0-6.1914 2.0742-14.387 0-22.609-2.0898-4.1641-6.3008-14.496-6.3008-16.645 0-4.043 0-8.1016 4.2227-8.1016 4.1641-2.1367 6.1914 0 8.2578 2.0273 4.0547 4.1641 10.344 18.551 10.344 22.715 0 2.0273 2.0273 6.1914 2.0273 6.1914v4.168zm-95.031-37.211c-2.0156 2.1367-10.285 6.1914-10.285 8.3164-2.0742 1.9062-8.3164 12.254-4.1641 18.551 4.1641 4.1641 12.434 0 14.449-2.1367 2.0898 0 16.535-10.344 20.699-10.344 4.043-2.0156 12.371-4.1641 18.492-2.0156 4.2227 2.0156 12.492 4.1641 14.508 4.1641 2.0273-2.1484 2.0273-4.1641 2.0273-6.3008 0-1.9062 0-4.043-2.0273-6.0703-2.0156 0-16.465-8.3164-20.629-10.234-4.1172 0-6.2539-2.2578-10.297 0-4.1641 0-12.48 1.9062-14.496 4.043zm-37.152 47.449c0-6.0703 2.0156-12.359 4.1055-16.414 4.1641-2.1367 6.2539-10.453 6.2539-12.48 0-2.0156-2.0898-6.1797-6.2539-6.1797-4.1055 0-6.1328 4.1641-8.2188 6.1797 0 2.0273-6.2383 10.344-6.2383 14.508-2.1367 2.0273-2.1367 12.371-2.1367 16.414 0 4.1641 0 12.48 2.1367 16.645 0 1.9219 4.1641 10.246 6.2383 12.371 2.0898 0 6.1328 2.0273 6.1328 2.0273 2.0898-2.0273 2.0898-6.0703 2.0898-8.2188-2.0898-4.2617-4.1055-14.508-4.1055-16.523zm57.855 12.492c-4.1641 0-20.699-4.1641-22.715-6.3008-2.1484 0-6.1914-2.0156-6.1914 0-2.0898 0-4.1641 4.1641-4.1641 6.3008 2.0742 0 4.1641 2.0156 8.207 4.043 2.1484 0 6.2539 4.0547 10.402 6.2891h18.492c2.0898 0 10.402-2.2422 14.449-2.2422 2.0898 0 8.3281-1.9219 10.402-4.0547 4.1055-4.043 8.2578-8.207 8.2578-12.359 2.0898-2.1484 2.0898-8.3281-2.1367-8.3281-6.1328 0-6.1328 4.1641-8.207 6.1914-2.0273 2.1484-6.2539 8.3164-8.3281 8.3164-4.043 0-10.234 2.1484-14.449 2.1484zm-156.98 49.477c0 4.1641 0-6.0703-6.2539-6.0703-6.1328 0-8.207 2.0156-8.207 4.043-2.0898 2.0273-10.344 8.2188-10.344 12.371 2.0273 6.1914 0 12.48 0 16.645 2.0273 6.0703 0 14.387-2.0273 16.414-2.0742 2.0273-10.402 16.535-10.402 20.578 2.0898 4.1641 4.1758 6.2891 8.3281 6.2891 2.0742 0 4.1055 4.1758 8.207 2.0273 4.1641-4.1641 6.2539-8.3164 8.3164-12.359 2.0898-2.0273 8.2188-10.465 10.285-14.508 0-2.0273 4.1641-12.371 4.1641-22.609 0-10.344-2.0742-12.48-2.0742-16.645l-0.003906-6.1758zm-181.74-43.309c-2.0742 4.1641-6.2383 8.3281-8.3164 6.1914 0 0-8.207-4.2617-12.422-6.1914 0-2.1367-14.449-8.3164-14.449-12.48 0-4.1641 6.2539-6.1914 8.3164-8.207 4.1055 0 12.371-4.0547 16.535-4.0547 6.1797 0 10.332 4.0547 14.449 6.0703 2.0742 2.0273 6.1914 4.1758 6.1914 8.3281 0 2.0156-6.1914 8.207-6.1914 8.207zm2.0273 57.816c-6.1914 2.0273-12.359 4.043-14.449 4.043-2.0742-2.0156-8.3164-4.043-8.3164-6.0703-2.0273-4.1641-6.1328-10.453-6.1328-12.48 0-2.0273 4.1055-6.0703 6.1328-6.0703 2.1367 0 14.508-10.344 18.672-10.344 4.1055 0 8.2578 4.043 10.285 6.0703 2.0898 0 14.449 8.3164 14.449 12.371 0 2.1367-12.359 8.3164-12.359 8.3164zm47.52 2.0273c-6.1914 4.1641-14.461 6.2891-14.461 8.3164 0 0 2.0898 4.1641 4.1172 6.0703 4.1641 2.1367 8.2578 8.3164 10.344 10.453 4.1055 2.0273 8.3164 2.0273 10.285 0 2.0742-2.1367 4.1641-8.3164 6.2383-10.453 0-3.9375 8.3164-16.414 4.1055-18.445-4.1055-4.1641-14.449 2.0273-14.449 2.0273zm-70.281 41.375c-4.043 0-8.207 2.0273-8.207 6.0703 0 2.1367 0 4.1641 6.1797 6.2891 6.2539 2.0273 12.434 6.1914 14.449 8.1016 4.1641 2.1484 10.344 0 12.434-1.9062 2.0742-2.0156 12.359-12.48 14.449-14.508 0-2.0156 2.0742-6.0703-2.0898-6.0703-2.0156-2.1367-6.1797-4.1641-12.359-2.1367-4.1172 0-10.344 2.1367-14.449 2.1367zm-88.73-84.793c6.1797-2.0156 10.234-4.043 16.523 2.1484 6.1914 4.1641 12.312 8.3164 10.246 10.344-2.0273 2.0156-12.312 6.1797-16.535 6.1797-6.0703 0-12.371-6.1797-14.449-8.207-4.0547 0-12.371 0-12.371-4.1641 0-4.1641 6.3008-4.1641 8.3164-4.1641z" />
    </g>
</svg>