<?xml version="1.0" encoding="UTF-8"?>
<svg width="700pt" height="700pt" version="1.1" viewBox="0 0 700 550" xmlns="http://www.w3.org/2000/svg"
    fill='currentColor'>
    <g>
        <path
            d="m573.33 182.74c-18.762 0.86719-36.598 8.4023-50.297 21.254-9.4727 10.941-18.355 22.375-26.617 34.254-1.1523 20.297-9.5039 39.516-23.555 54.207 11.516-1.2695 22.992 2.6602 31.309 10.719 7.7148-17.855 21.062-32.691 38.008-42.242 25.25-5.1523 47.629-19.652 62.645-40.602 1.5938-2.2148 2.1914-4.9961 1.6523-7.6719-2.6562-13.152-11.953-23.977-24.551-28.59-2.75-1.0117-5.6758-1.4609-8.6016-1.3281zm-20.039 15.352c1.6211-0.046875 3.1953 0.56641 4.3594 1.6953 1.1641 1.1289 1.8203 2.6836 1.8203 4.3047 0.019531 1.6055-0.60547 3.1523-1.7344 4.293s-2.6641 1.7812-4.2695 1.7812c-1.6055 0-3.1406-0.64062-4.2695-1.7812-1.1289-1.1406-1.7539-2.6875-1.7344-4.293 0-3.2461 2.582-5.9023 5.8281-6z" />
        <path
            d="m450.16 241.89c3.625-2.332 6.5508-5.6133 8.4492-9.4844 1.9023-3.8711 2.7109-8.1875 2.3398-12.488-19.246-19.145-43.855-31.988-70.562-36.836-0.62109 6.1133-3.5664 11.754-8.2266 15.754 27.551 4.582 52.074 20.113 68 43.055z" />
        <path
            d="m292.04 196.93c4.6094-3.6328 8.7461-7.8203 12.324-12.473 1.9141-2.4844 2.6641-5.6758 2.0547-8.7539 25.461-7.0469 52.594-4.8281 76.57 6.2578 0.89453 0.10938 1.7891 0.22656 2.6797 0.35156-0.57812 6.707-4.625 12.617-10.664 15.586-10.531-1.0039-21.156-0.39062-31.5 1.8242-16.898-3.6992-34.281-4.6484-51.48-2.8086z" />
        <path
            d="m175.62 232.32c-12.375 12.883-21.445 28.574-26.43 45.73-1.2578 4.3398 0.59766 8.9766 4.5039 11.246 3.9258 2.2773 8.2617 3.7578 12.762 4.3516 7.5586-18.984 12.105-39.031 13.48-59.418 0.078125-1.0625-0.51953-2.0586-1.4922-2.4883-0.97266-0.42969-2.1094-0.19922-2.8438 0.57422z" />
        <path
            d="m346.12 301.38c20.406 1.3672 40.766-3.2148 58.621-13.188 17.855-9.9727 32.434-24.906 41.973-42.996-10.914-15.98-26.281-28.398-44.191-35.711-17.914-7.3164-37.582-9.2031-56.559-5.4336 1.5469 32.422 1.6953 64.895 0.44531 97.328z" />
        <path
            d="m161.39 297.48c-3.5312-0.89453-6.9219-2.2734-10.07-4.1016-3.9062-2.2656-6.543-6.2148-7.1328-10.691-8.8555 10.027-14.906 22.219-17.551 35.336-0.41797 2.082-0.15234 4.2422 0.76172 6.1602 3.2773 6.8984 9.6602 11.809 17.172 13.207-0.003907-0.03125-0.003907-0.058593 0-0.089843 2.457-14.383 8.1953-28.012 16.766-39.824z" />
        <path
            d="m183.01 346.04c-2.4922-12.645-1.6445-25.715 2.457-37.93-6.6445-2.4609-12.934-5.7852-18.703-9.8945-8.9844 11.66-14.988 25.336-17.484 39.84-0.015625 0.30469-0.015625 0.60547 0 0.91016 9.4219 7.7734 22.062 10.418 33.809 7.0742z" />
        <path
            d="m232.33 305.95c0.24609-33.348 7.2812-66.293 20.676-96.828-25.293-5.2109-51.539 2.2461-70.312 19.98 1.3828 1.4648 2.0938 3.4375 1.9648 5.4453-1.4141 20.855-6.0664 41.359-13.793 60.781 18.008 12.215 40.402 16.086 61.461 10.621z" />
        <path
            d="m231.39 355.27c3.3711-13.645 3.707-27.859 0.98438-41.645-0.007812-0.93359-0.007812-1.8672 0-2.8008-13.969 3.3984-28.598 2.9883-42.352-1.1914-3.9961 11.836-4.7227 24.527-2.1016 36.738 12.105 10.055 28.43 13.395 43.508 8.9062z" />
        <path
            d="m225.73 196.32c19.648-16.395 44.543-25.16 70.125-24.691 2.332 0.039063 4.4453 1.3906 5.457 3.4922 1.0117 2.1016 0.75391 4.5977-0.67188 6.4453-5.2422 6.8008-11.754 12.52-19.176 16.84-8.5898 1.5039-17.039 3.6992-25.273 6.5703-8.6914-2.0391-17.656-2.6797-26.551-1.8945-1.7969-1.9375-3.1367-4.2461-3.9336-6.7656z" />
        <path
            d="m179.35 225.76c12.359-11.715 27.996-19.391 44.824-22.004-1.1992-1.7422-2.1484-3.6406-2.8164-5.6484-17.363 2.6602-32.699 12.758-42.008 27.652z" />
        <path
            d="m258.07 209.34c-13.672 30.535-20.828 63.582-21.02 97.035 16.098 8.9258 34.34 13.266 52.73 12.539 18.395-0.72266 36.234-6.4805 51.582-16.645 1.4297-32.715 1.4297-65.477 0-98.191-27.688-5.8203-56.438-4.0039-83.168 5.2617z" />
        <path
            d="m291.07 323.59c-0.67969 12.539-2.2188 25.012-4.5977 37.34-16.84 4.5156-34.75 2.7188-50.359-5.0469 3.3867-14.023 3.7227-28.613 0.98437-42.773-0.003906-0.45312-0.003906-0.90234 0-1.3516 16.621 8.6797 35.258 12.766 53.988 11.832z" />
        <path
            d="m409.52 290.89c17.426-10.332 31.68-25.258 41.195-43.145 12.992 3.0742 24.633 10.277 33.184 20.531-10.895 22.727-31.777 39.055-56.457 44.148-4.9844-7.9492-11.012-15.191-17.922-21.535z" />
        <path
            d="m455.22 244.05c6.5625-5.3125 10.426-13.27 10.539-21.715 9.5 3.8281 18.266 9.2773 25.898 16.109-0.53906 8.5938-2.4531 17.047-5.6641 25.039-8.25-9.2188-18.906-15.945-30.773-19.434z" />
        <path
            d="m405.18 293.33c-10.195 5.4453-21.184 9.2539-32.559 11.293 8.8906 9.8594 14.562 22.195 16.262 35.359 13.391-5.4102 25.242-14.039 34.5-25.125-5.0195-8-11.148-15.246-18.203-21.527z" />
        <path
            d="m344.31 305.99c-14.484 9.6719-31.141 15.602-48.48 17.254-0.66406 12.773-2.1992 25.484-4.5977 38.047 17.934 6.4102 37.324 7.5664 55.891 3.332 14.395-3.4062 27.402-11.129 37.285-22.133-1.3672-13.992-7.5586-27.074-17.512-37-7.4922 0.9375-15.062 1.1055-22.586 0.49609z" />
        <path
            d="m500.2 381.9c5.8555 3.7734 13.109 4.6836 19.715 2.4766 6.6055-2.207 11.852-7.2969 14.258-13.836 0.51562-5.3086-2.3164-10.379-7.1055-12.73-4.7891-2.3477-10.531-1.4844-14.414 2.1758-0.45313 0.44531-1.0664 0.6875-1.6992 0.67578-0.63672-0.007812-1.2422-0.27344-1.6797-0.73437-0.4375-0.46094-0.67188-1.0781-0.64844-1.7148 0.023437-0.63281 0.29688-1.2344 0.76562-1.6641 2.3516-2.2266 5.2734-3.7578 8.4453-4.4258-3.1836-6.8984-5.4062-14.199-6.5977-21.699-0.21094-10.895-5.6094-21.035-14.527-27.293-8.9219-6.2578-20.297-7.8789-30.609-4.3672-11.078 9.3164-24.336 15.664-38.539 18.449-10.391 12.684-23.973 22.379-39.344 28.09-1.0117 1.1406-2.0547 2.25-3.1289 3.3281 12.91 4.2539 26.91 3.7812 39.504-1.3398 13.676-5.3047 28.242-7.957 42.914-7.8125 3.3047 0.039062 6.5 1.1992 9.0586 3.2969 2.5586 2.0938 4.3281 4.9961 5.0156 8.2305 2.5742 12.09 9.125 22.969 18.609 30.895z" />
        <path
            d="m185.23 350.31c-10.746 3.3242-22.379 2.1875-32.277-3.1562-4.0938 4.5352-9.9102 7.1367-16.016 7.168-13.566-1.0117-27.18 1.2461-39.691 6.582-1.7461 0.60938-3.1016 2.0117-3.6484 3.7812-0.54688 1.7656-0.22266 3.6875 0.87891 5.1758 6.6172 8.9727 16.074 15.445 26.836 18.367 5.5078 0.98438 10.801-2.5938 11.938-8.0742 1.1367-5.4805-2.293-10.871-7.7383-12.16-1.2734-0.29297-2.0625-1.5664-1.7695-2.8398 0.29688-1.2695 1.5703-2.0625 2.8398-1.7656 2.9648 0.6875 5.6523 2.2578 7.707 4.5039 2.0586 2.2422 3.3828 5.0586 3.8086 8.0703 15.25 0.46484 30.508-0.42578 45.602-2.6602 8.9805-1.8047 17.273-6.0938 23.93-12.387-8.2148-1.6719-15.898-5.3086-22.398-10.605z" />
    </g>
</svg>