<?xml version="1.0" encoding="UTF-8"?>
<svg width="700pt" height="700pt" version="1.1" viewBox="0 0 700 700" xmlns="http://www.w3.org/2000/svg" xmlns:xlink="http://www.w3.org/1999/xlink">
 <defs>
  <symbol id="v" overflow="visible">
   <path d="m3.8438-0.23438c-0.19922 0.10547-0.40625 0.18359-0.625 0.23438-0.21094 0.050781-0.43359 0.078125-0.67188 0.078125-0.69922 0-1.25-0.19141-1.6562-0.57812-0.40625-0.39453-0.60938-0.92578-0.60938-1.5938 0-0.66406 0.20312-1.1914 0.60938-1.5781 0.40625-0.38281 0.95703-0.57812 1.6562-0.57812 0.23828 0 0.46094 0.027344 0.67188 0.078125 0.21875 0.054687 0.42578 0.13281 0.625 0.23438v0.85938c-0.19922-0.13281-0.39844-0.23438-0.59375-0.29688-0.19922-0.0625-0.40234-0.09375-0.60938-0.09375-0.38672 0-0.6875 0.125-0.90625 0.375-0.21875 0.24219-0.32812 0.57422-0.32812 1 0 0.4375 0.10938 0.78125 0.32812 1.0312 0.21875 0.24219 0.51953 0.35938 0.90625 0.35938 0.20703 0 0.41016-0.03125 0.60938-0.09375 0.19531-0.0625 0.39453-0.16016 0.59375-0.29688z"/>
  </symbol>
  <symbol id="d" overflow="visible">
   <path d="m2.8125-2.2812c-0.09375-0.039062-0.18359-0.070312-0.26562-0.09375-0.085937-0.019531-0.17188-0.03125-0.26562-0.03125-0.25 0-0.44922 0.085938-0.59375 0.25-0.13672 0.16797-0.20312 0.40625-0.20312 0.71875v1.4375h-1v-3.1406h1v0.51562c0.125-0.19531 0.26953-0.34375 0.4375-0.4375 0.16406-0.10156 0.36719-0.15625 0.60938-0.15625 0.03125 0 0.066406 0.007812 0.10938 0.015625 0.039063 0 0.097656 0.007813 0.17188 0.015625z"/>
  </symbol>
  <symbol id="b" overflow="visible">
   <path d="m3.6094-1.5781v0.28125h-2.3438c0.03125 0.24219 0.11328 0.42188 0.25 0.54688 0.14453 0.11719 0.35156 0.17188 0.625 0.17188 0.20703 0 0.42188-0.03125 0.64062-0.09375s0.44531-0.16016 0.6875-0.29688v0.78125c-0.24219 0.085938-0.48047 0.14844-0.71875 0.1875-0.24219 0.050781-0.47656 0.078125-0.70312 0.078125-0.57422 0-1.0156-0.14062-1.3281-0.42188-0.3125-0.28906-0.46875-0.69531-0.46875-1.2188 0-0.50781 0.14844-0.91016 0.45312-1.2031 0.3125-0.30078 0.73828-0.45312 1.2812-0.45312 0.48828 0 0.87891 0.15234 1.1719 0.45312 0.30078 0.29297 0.45312 0.6875 0.45312 1.1875zm-1.0312-0.32812c0-0.1875-0.058594-0.33594-0.17188-0.45312-0.10547-0.125-0.24609-0.1875-0.42188-0.1875-0.19922 0-0.35938 0.058594-0.48438 0.17188-0.11719 0.10547-0.1875 0.26172-0.21875 0.46875z"/>
  </symbol>
  <symbol id="l" overflow="visible">
   <path d="m1.8906-1.4062c-0.21094 0-0.37109 0.039062-0.48438 0.10938-0.10547 0.0625-0.15625 0.16797-0.15625 0.3125 0 0.125 0.039062 0.22656 0.125 0.29688 0.09375 0.074219 0.21094 0.10938 0.35938 0.10938 0.1875 0 0.34375-0.066406 0.46875-0.20312 0.13281-0.13281 0.20312-0.30469 0.20312-0.51562v-0.10938zm1.5312-0.39062v1.7969h-1.0156v-0.46875c-0.13672 0.19922-0.28906 0.33984-0.45312 0.42188-0.16797 0.082031-0.37109 0.125-0.60938 0.125-0.32422 0-0.58984-0.09375-0.79688-0.28125-0.19922-0.1875-0.29688-0.42969-0.29688-0.73438 0-0.375 0.125-0.64453 0.375-0.8125 0.25-0.16406 0.64453-0.25 1.1875-0.25h0.59375v-0.09375c0-0.15625-0.0625-0.26953-0.1875-0.34375-0.125-0.070312-0.32031-0.10938-0.57812-0.10938-0.21875 0-0.42188 0.023437-0.60938 0.0625-0.17969 0.042969-0.35156 0.10938-0.51562 0.20312v-0.76562c0.21875-0.050781 0.4375-0.09375 0.65625-0.125s0.42969-0.046875 0.64062-0.046875c0.57031 0 0.98438 0.11719 1.2344 0.34375 0.25 0.21875 0.375 0.57812 0.375 1.0781z"/>
  </symbol>
  <symbol id="a" overflow="visible">
   <path d="m1.5781-4.0312v0.89062h1.0312v0.71875h-1.0312v1.3281c0 0.14844 0.023437 0.24609 0.078125 0.29688 0.0625 0.054687 0.17578 0.078125 0.34375 0.078125h0.51562v0.71875h-0.85938c-0.39844 0-0.67969-0.082031-0.84375-0.25-0.15625-0.16406-0.23438-0.44531-0.23438-0.84375v-1.3281h-0.5v-0.71875h0.5v-0.89062z"/>
  </symbol>
  <symbol id="f" overflow="visible">
   <path d="m2.6094-2.6719v-1.6875h1.0156v4.3594h-1.0156v-0.45312c-0.13672 0.1875-0.28906 0.32422-0.45312 0.40625-0.16797 0.082031-0.35938 0.125-0.57812 0.125-0.38672 0-0.70312-0.14844-0.95312-0.45312-0.25-0.3125-0.375-0.70703-0.375-1.1875 0-0.48828 0.125-0.88281 0.375-1.1875 0.25-0.3125 0.56641-0.46875 0.95312-0.46875 0.21875 0 0.41016 0.046875 0.57812 0.14062 0.16406 0.085937 0.31641 0.21875 0.45312 0.40625zm-0.65625 2.0312c0.21875 0 0.37891-0.078125 0.48438-0.23438 0.11328-0.16406 0.17188-0.39453 0.17188-0.6875 0-0.30078-0.058594-0.53125-0.17188-0.6875-0.10547-0.15625-0.26562-0.23438-0.48438-0.23438-0.21094 0-0.37109 0.078125-0.48438 0.23438-0.11719 0.15625-0.17188 0.38672-0.17188 0.6875 0 0.29297 0.054687 0.52344 0.17188 0.6875 0.11328 0.15625 0.27344 0.23438 0.48438 0.23438z"/>
  </symbol>
  <symbol id="k" overflow="visible">
   <path d="m2.1562-0.64062c0.20703 0 0.36719-0.078125 0.48438-0.23438 0.11328-0.16406 0.17188-0.39453 0.17188-0.6875 0-0.30078-0.058594-0.53125-0.17188-0.6875-0.11719-0.15625-0.27734-0.23438-0.48438-0.23438-0.21875 0-0.38672 0.078125-0.5 0.23438-0.11719 0.15625-0.17188 0.38672-0.17188 0.6875 0 0.29297 0.054687 0.52344 0.17188 0.6875 0.11328 0.15625 0.28125 0.23438 0.5 0.23438zm-0.67188-2.0312c0.13281-0.1875 0.28516-0.32031 0.45312-0.40625 0.16406-0.09375 0.35938-0.14062 0.57812-0.14062 0.39453 0 0.71094 0.15625 0.95312 0.46875 0.25 0.30469 0.375 0.69922 0.375 1.1875 0 0.48047-0.125 0.875-0.375 1.1875-0.24219 0.30469-0.55859 0.45312-0.95312 0.45312-0.21875 0-0.41406-0.042969-0.57812-0.125-0.16797-0.082031-0.32031-0.21875-0.45312-0.40625v0.45312h-1v-4.3594h1z"/>
  </symbol>
  <symbol id="e" overflow="visible">
   <path d="m0.0625-3.1406h1.0156l0.84375 2.125 0.70312-2.125h1.0156l-1.3281 3.4375c-0.13672 0.35156-0.29297 0.59766-0.46875 0.73438-0.16797 0.13281-0.39844 0.20312-0.6875 0.20312h-0.57812v-0.65625h0.3125c0.16406 0 0.28516-0.027344 0.35938-0.078125 0.082031-0.054688 0.14453-0.15234 0.1875-0.29688l0.03125-0.078125z"/>
  </symbol>
  <symbol id="j" overflow="visible">
   <path d="m3.0625-0.76562h-1.6875l-0.26562 0.76562h-1.0781l1.5469-4.1875h1.2812l1.5469 4.1875h-1.0781zm-1.4219-0.76562h1.1562l-0.57812-1.6719z"/>
  </symbol>
  <symbol id="i" overflow="visible">
   <path d="m3.3906-2.6094c0.125-0.19531 0.27344-0.34766 0.45312-0.45312 0.17578-0.10156 0.36719-0.15625 0.57812-0.15625 0.35156 0 0.625 0.11719 0.8125 0.34375 0.1875 0.21875 0.28125 0.54297 0.28125 0.96875v1.9062h-1v-1.6406-0.0625-0.125c0-0.21875-0.03125-0.375-0.09375-0.46875-0.0625-0.10156-0.16797-0.15625-0.3125-0.15625-0.19922 0-0.35156 0.078125-0.45312 0.23438-0.09375 0.15625-0.14844 0.38281-0.15625 0.67188v1.5469h-1v-1.6406c0-0.34375-0.03125-0.5625-0.09375-0.65625-0.0625-0.10156-0.16797-0.15625-0.3125-0.15625-0.19922 0-0.35156 0.078125-0.45312 0.23438-0.10547 0.15625-0.15625 0.38281-0.15625 0.67188v1.5469h-1.0156v-3.1406h1.0156v0.46875c0.125-0.17578 0.26562-0.3125 0.42188-0.40625s0.33203-0.14062 0.53125-0.14062c0.21875 0 0.41016 0.058594 0.57812 0.17188 0.16406 0.10547 0.28906 0.25 0.375 0.4375z"/>
  </symbol>
  <symbol id="h" overflow="visible">
   <path d="m3.6406-1.9062v1.9062h-1.0156v-1.4531c0-0.28125-0.007812-0.46875-0.015625-0.5625-0.011719-0.10156-0.03125-0.17969-0.0625-0.23438-0.042969-0.0625-0.10156-0.10938-0.17188-0.14062-0.0625-0.039063-0.13672-0.0625-0.21875-0.0625-0.21094 0-0.375 0.085937-0.5 0.25-0.11719 0.15625-0.17188 0.375-0.17188 0.65625v1.5469h-1v-4.3594h1v1.6875c0.14453-0.1875 0.30078-0.32031 0.46875-0.40625 0.17578-0.09375 0.36719-0.14062 0.57812-0.14062 0.36328 0 0.64062 0.11719 0.82812 0.34375 0.1875 0.21875 0.28125 0.54297 0.28125 0.96875z"/>
  </symbol>
  <symbol id="u" overflow="visible">
   <path d="m2.9375-3.0312v0.75c-0.21875-0.082031-0.42969-0.14453-0.625-0.1875-0.19922-0.050781-0.38672-0.078125-0.5625-0.078125-0.19922 0-0.34375 0.027344-0.4375 0.078125-0.085938 0.042969-0.125 0.11719-0.125 0.21875 0 0.074219 0.03125 0.13672 0.09375 0.1875 0.070312 0.042969 0.19531 0.074219 0.375 0.09375l0.1875 0.015625c0.50781 0.074219 0.85156 0.18359 1.0312 0.32812 0.17578 0.14844 0.26562 0.38281 0.26562 0.70312 0 0.33594-0.125 0.58594-0.375 0.75-0.24219 0.16797-0.60547 0.25-1.0938 0.25-0.21094 0-0.42969-0.015625-0.65625-0.046875-0.21875-0.03125-0.44531-0.078125-0.67188-0.14062v-0.76562c0.19531 0.09375 0.39844 0.16797 0.60938 0.21875 0.21875 0.054688 0.42969 0.078125 0.64062 0.078125 0.19531 0 0.34375-0.023437 0.4375-0.078125 0.10156-0.0625 0.15625-0.14453 0.15625-0.25 0-0.09375-0.039062-0.16016-0.10938-0.20312-0.0625-0.039063-0.19531-0.070313-0.39062-0.09375l-0.1875-0.03125c-0.44922-0.050781-0.76172-0.14844-0.9375-0.29688-0.17969-0.15625-0.26562-0.39062-0.26562-0.70312 0-0.33203 0.11328-0.57812 0.34375-0.73438 0.22656-0.16406 0.57812-0.25 1.0469-0.25 0.1875 0 0.37891 0.015625 0.57812 0.046875 0.20703 0.03125 0.42969 0.078125 0.67188 0.14062z"/>
  </symbol>
  <symbol id="t" overflow="visible">
   <path d="m3.4375-4.0469v0.89062c-0.23047-0.10156-0.45312-0.17969-0.67188-0.23438-0.21875-0.050781-0.42969-0.078125-0.625-0.078125-0.25 0-0.4375 0.039062-0.5625 0.10938-0.125 0.0625-0.1875 0.17188-0.1875 0.32812 0 0.10547 0.039063 0.1875 0.125 0.25 0.082031 0.0625 0.23438 0.12109 0.45312 0.17188l0.45312 0.09375c0.46875 0.09375 0.79688 0.23438 0.98438 0.42188 0.19531 0.1875 0.29688 0.46094 0.29688 0.8125 0 0.46094-0.13672 0.80469-0.40625 1.0312-0.27344 0.21875-0.6875 0.32812-1.25 0.32812-0.26172 0-0.52734-0.027344-0.79688-0.078125-0.27344-0.039062-0.53906-0.11328-0.79688-0.21875v-0.90625c0.25781 0.13672 0.51562 0.24219 0.76562 0.3125 0.25 0.074219 0.48828 0.10938 0.71875 0.10938 0.23828 0 0.42188-0.035156 0.54688-0.10938 0.125-0.082031 0.1875-0.19531 0.1875-0.34375 0-0.125-0.042969-0.22266-0.125-0.29688-0.085937-0.070313-0.25781-0.13281-0.51562-0.1875l-0.40625-0.09375c-0.42969-0.09375-0.74219-0.23828-0.9375-0.4375-0.1875-0.19531-0.28125-0.45703-0.28125-0.78125 0-0.41406 0.13281-0.73438 0.40625-0.95312 0.26953-0.22656 0.65625-0.34375 1.1562-0.34375 0.22656 0 0.46094 0.015625 0.70312 0.046875 0.25 0.03125 0.50391 0.085937 0.76562 0.15625z"/>
  </symbol>
  <symbol id="g" overflow="visible">
   <path d="m0.45312-1.2188v-1.9219h1v0.3125 0.65625 0.5c0 0.25 0.003906 0.43359 0.015625 0.54688 0.007812 0.11719 0.03125 0.19922 0.0625 0.25 0.039062 0.0625 0.09375 0.11719 0.15625 0.15625 0.070312 0.03125 0.14844 0.046875 0.23438 0.046875 0.20703 0 0.36719-0.078125 0.48438-0.23438 0.125-0.16406 0.1875-0.39453 0.1875-0.6875v-1.5469h1v3.1406h-1v-0.45312c-0.14844 0.1875-0.30859 0.32422-0.48438 0.40625-0.16797 0.082031-0.35156 0.125-0.54688 0.125-0.36719 0-0.64062-0.10938-0.82812-0.32812s-0.28125-0.53906-0.28125-0.96875z"/>
  </symbol>
  <symbol id="s" overflow="visible">
   <path d="m0.48438-3.1406h1v3.1406h-1zm0-1.2188h1v0.8125h-1z"/>
  </symbol>
  <symbol id="c" overflow="visible">
   <path d="m1.9688-2.5c-0.21875 0-0.38672 0.085938-0.5 0.25-0.11719 0.15625-0.17188 0.38672-0.17188 0.6875 0 0.30469 0.054687 0.53125 0.17188 0.6875 0.11328 0.15625 0.28125 0.23438 0.5 0.23438s0.38281-0.078125 0.5-0.23438c0.125-0.15625 0.1875-0.38281 0.1875-0.6875 0-0.30078-0.0625-0.53125-0.1875-0.6875-0.11719-0.16406-0.28125-0.25-0.5-0.25zm0-0.71875c0.53906 0 0.96094 0.14844 1.2656 0.4375 0.30078 0.29297 0.45312 0.69922 0.45312 1.2188 0 0.51172-0.15234 0.91406-0.45312 1.2031-0.30469 0.29297-0.72656 0.4375-1.2656 0.4375-0.54297 0-0.96484-0.14453-1.2656-0.4375-0.30469-0.28906-0.45312-0.69141-0.45312-1.2031 0-0.51953 0.14844-0.92578 0.45312-1.2188 0.30078-0.28906 0.72266-0.4375 1.2656-0.4375z"/>
  </symbol>
  <symbol id="r" overflow="visible">
   <path d="m2.5469-4.3594v0.65625h-0.5625c-0.13672 0-0.23438 0.027344-0.29688 0.078125-0.054688 0.054688-0.078125 0.14062-0.078125 0.26562v0.21875h0.85938v0.71875h-0.85938v2.4219h-1v-2.4219h-0.5v-0.71875h0.5v-0.21875c0-0.33203 0.09375-0.58203 0.28125-0.75 0.1875-0.16406 0.48438-0.25 0.89062-0.25z"/>
  </symbol>
  <symbol id="q" overflow="visible">
   <path d="m0.53125-4.1875h1.2031l1.5156 2.875v-2.875h1.0156v4.1875h-1.2031l-1.5156-2.875v2.875h-1.0156z"/>
  </symbol>
  <symbol id="p" overflow="visible">
   <path d="m3.6406-1.9062v1.9062h-1.0156v-1.4688c0-0.26953-0.007812-0.45312-0.015625-0.54688-0.011719-0.10156-0.03125-0.17969-0.0625-0.23438-0.042969-0.0625-0.10156-0.10938-0.17188-0.14062-0.0625-0.039063-0.13672-0.0625-0.21875-0.0625-0.21094 0-0.375 0.085937-0.5 0.25-0.11719 0.15625-0.17188 0.375-0.17188 0.65625v1.5469h-1v-3.1406h1v0.46875c0.14453-0.1875 0.30078-0.32031 0.46875-0.40625 0.17578-0.09375 0.36719-0.14062 0.57812-0.14062 0.36328 0 0.64062 0.11719 0.82812 0.34375 0.1875 0.21875 0.28125 0.54297 0.28125 0.96875z"/>
  </symbol>
  <symbol id="o" overflow="visible">
   <path d="m0.53125-4.1875h1.7812c0.53125 0 0.9375 0.12109 1.2188 0.35938 0.28906 0.24219 0.4375 0.57812 0.4375 1.0156s-0.14844 0.77734-0.4375 1.0156c-0.28125 0.23047-0.6875 0.34375-1.2188 0.34375h-0.70312v1.4531h-1.0781zm1.0781 0.78125v1.1719h0.59375c0.20703 0 0.36719-0.046875 0.48438-0.14062 0.11328-0.10156 0.17188-0.25 0.17188-0.4375s-0.058594-0.33203-0.17188-0.4375c-0.11719-0.10156-0.27734-0.15625-0.48438-0.15625z"/>
  </symbol>
  <symbol id="n" overflow="visible">
   <path d="m0.48438-3.1406h1v3.0781c0 0.42578-0.10547 0.75-0.3125 0.96875-0.19922 0.21875-0.48438 0.32812-0.85938 0.32812h-0.5v-0.65625h0.17188c0.1875 0 0.31641-0.042969 0.39062-0.125 0.070312-0.085937 0.10938-0.25781 0.10938-0.51562zm0-1.2188h1v0.8125h-1z"/>
  </symbol>
  <symbol id="m" overflow="visible">
   <path d="m3.0156-3.0312v0.8125c-0.13672-0.09375-0.27344-0.16016-0.40625-0.20312-0.13672-0.050781-0.28125-0.078125-0.4375-0.078125-0.27344 0-0.48438 0.085938-0.64062 0.25-0.15625 0.16797-0.23438 0.39844-0.23438 0.6875 0 0.29297 0.078125 0.52344 0.23438 0.6875 0.15625 0.15625 0.36719 0.23438 0.64062 0.23438 0.15625 0 0.30469-0.019531 0.45312-0.0625 0.14453-0.050781 0.27344-0.11719 0.39062-0.20312v0.8125c-0.15625 0.0625-0.32031 0.10156-0.48438 0.125-0.15625 0.03125-0.32031 0.046875-0.48438 0.046875-0.5625 0-1.0078-0.14453-1.3281-0.4375-0.3125-0.28906-0.46875-0.69141-0.46875-1.2031 0-0.51953 0.15625-0.92578 0.46875-1.2188 0.32031-0.28906 0.76562-0.4375 1.3281-0.4375 0.16406 0 0.32812 0.015625 0.48438 0.046875 0.16406 0.03125 0.32812 0.078125 0.48438 0.14062z"/>
  </symbol>
 </defs>
 <g>
  <path d="m329.07 541.36c-10.129-5.4844-23.191-3.0508-24.957-2.6836l-28.023 9.7031c-2.4023 0.83203-4.0156 3.0977-4.0156 5.6406 0 1.5977 0.62109 3.0938 1.75 4.2227 1.125 1.125 2.625 1.7461 4.2227 1.7461h0.003907c22.707-0.007813 48.09-0.015626 65.078-0.015626-1.418-1.7148-2.6367-3.6211-3.5859-5.707-2-4.375-5.4336-10.172-10.473-12.906z"/>
  <path d="m499.99 548.38-28.027-9.7031c-1.7461-0.36328-14.824-2.8008-24.953 2.6875-5.043 2.7305-8.4766 8.5273-10.469 12.91-0.94922 2.0859-2.168 3.9922-3.582 5.707 16.988-0.003906 42.371 0.003906 65.078 0.015625h0.003906c1.5938 0 3.0898-0.62109 4.2188-1.7461 1.1289-1.125 1.75-2.625 1.75-4.2227-0.003906-2.5469-1.6172-4.8164-4.0195-5.6484z"/>
  <path d="m511.44 484.94c-0.36719-5.2422 0.53125-11.254 1.4844-17.621 1.1172-7.4531 2.3789-15.902 1.6602-24.039-0.70313-7.957-6.625-24.152-11.852-38.441-4.6133-12.613-8.9688-24.527-10.125-31.504-0.60156-3.625-1.0234-7.7266-1.4648-12.066-1.3672-13.332-3.0703-29.922-11.262-44.707-7.4766-13.492-23.633-23.289-32.32-27.809-0.003906 0.019531-0.003906 0.042969-0.003906 0.0625-0.58984 6.2578-1.1445 12.168 0.12109 17.574 0.35937 1.5234-0.085938 3.125-1.1758 4.2461-1.0898 1.1211-2.6758 1.6133-4.2109 1.3008-3.168-0.64453-6.1055-1.8633-8.8398-3.668 1.0273 7.0273 1.4883 15.059 0.23047 22.516-1.3789 8.1953-5.582 14.953-10.445 22.777-6.8984 11.098-14.715 23.676-17.484 45.012-0.24219 1.8633-1.5938 3.3906-3.4102 3.8555-1.8203 0.46094-3.7383-0.22266-4.8477-1.7383-3.3633-4.6055-5.8633-8.5898-7.7578-12.527-1.8516 8.0078-4.8359 16.191-9.6172 24.273-0.83594 1.4141-2.3516 2.2539-3.9492 2.2539-0.30469 0-0.61328-0.03125-0.92578-0.09375-1.918-0.39453-3.375-1.9609-3.6289-3.9062-2.8125-21.688-11.594-39.309-18.652-53.469-4.9531-9.9414-9.2344-18.523-10.566-26.438-1.2578-7.4609-0.79688-15.492 0.23047-22.516-2.7344 1.8047-5.6758 3.0234-8.8398 3.668-1.5312 0.3125-3.1172-0.17969-4.2109-1.3008-1.0898-1.125-1.5352-2.7227-1.1758-4.2461 1.2656-5.4062 0.71094-11.316 0.12109-17.574-0.015626-0.1875-0.035157-0.37109-0.050782-0.55859-7.6016 3.1992-21.223 9.7031-29.664 18.277-6.1953 6.293-8.8906 12.914-11.496 19.316-2.5977 6.3789-5.0469 12.402-10.543 17.047-4.1406 3.5-9.957 5.9258-17.285 7.2188-5.7422 1.0117-9.9883 5.9102-10.098 11.648-0.59766 31.746 0.58203 54.91 3.2344 63.555 2.2422 7.293 5.3789 11.652 9.0156 16.699 4.6914 6.5117 10.012 13.895 14.199 28.609 5.75 20.215 8.7383 51.652 9.793 64.742l12.938-4.4805 17.645-192.9c0.23047-2.5234 2.4688-4.3945 4.9883-4.1523 2.5234 0.23047 4.3828 2.4648 4.1523 4.9883l-15.488 169.3c17.902 0.32422 33.629 6.4219 46.77 18.176 1.8906 1.6914 2.0508 4.5938 0.35938 6.4805-0.90625 1.0117-2.1641 1.5312-3.4219 1.5312-1.0898 0-2.1836-0.38672-3.0586-1.168-11.777-10.535-25.387-15.742-41.488-15.863l-1.0586 11.594c6.3438-0.56641 16.527-0.42578 25.477 4.418 5.8438 3.168 10.707 8.9492 14.453 17.18 2.6328 5.7852 8.3594 9.5234 14.59 9.5273h0.007813 51.086 0.015625c6.2305-0.003906 11.957-3.7383 14.586-9.5234 3.7461-8.2344 8.6094-14.016 14.453-17.18 8.9453-4.8477 19.129-4.9883 25.477-4.4219l-1.0547-11.523h-25.348c-2.5352 0-4.5898-2.0547-4.5898-4.5898 0-2.5352 2.0547-4.5898 4.5898-4.5898h24.508l-15.492-169.35c-0.23047-2.5234 1.6289-4.7578 4.1523-4.9883 2.5234-0.24219 4.7578 1.6289 4.9883 4.1523l10.723 117.21c2.5117-2.3555 4.3164-5.5156 5.4648-9.5469 0.69531-2.4414 3.2305-3.8516 5.6719-3.1562 2.4375 0.69531 3.8516 3.2344 3.1562 5.6719-2.3047 8.0977-6.7852 13.996-13.328 17.574l2.3633 25.836c6.9727-6.5156 11.797-15.328 14.645-26.754 0.61328-2.4609 3.0977-3.9609 5.5664-3.3438 2.4609 0.61328 3.957 3.1055 3.3438 5.5664-3.9023 15.648-11.48 27.594-22.543 35.559l1.9492 21.309c3.5078-3.0156 8.2227-6.3945 14.082-9.0781 6.832-3.1328 13.98-2.6523 19.723-2.2617 6.8164 0.46094 9.7344 0.41016 11.137-2.0039 1.5-2.5742 0.011719-5.2422-3.7383-10.711-2.9141-4.2617-6.2305-9.0938-6.6367-14.926z"/>
  <path d="m190.72 411.14 0.55859 142.68c4.8594-4.3711 11.113-11.223 14.871-20.051 1.6016-3.7578 5.2617-23.258 5.1055-122.63z"/>
  <path d="m240.75 357.32h-21.059c0.125 2.3594 0.25391 4.7695 0.39453 7.2344 0.30469 5.3711-1.5625 10.488-5.2578 14.402-3.6445 3.8594-8.7812 6.0703-14.09 6.0703-5.2773 0-10.211-2.082-13.891-5.8633-3.6758-3.7773-5.6211-8.7578-5.4805-14.027 0.058594-2.2422 0.11328-4.4375 0.16016-6.5898-8.8398 3.0195-15.027 11.324-15.027 21.086 0 12.305 10.012 22.312 22.312 22.312h51.762c-0.62891-12.863-0.60156-27.656-0.36328-40.367 0.03125-1.4531 0.22266-2.875 0.53906-4.2578z"/>
  <path d="m277.14 102.19c3.0898-1.3789 5.0117-5.5195 5.1328-11.078 0.16406-7.5273 5.082-13.973 12.242-16.031 29.703-8.5469 61.172-12.883 93.531-12.883 36.969 0 68.793 5.7266 94.676 13.27-2.1719-6.4102-6.6484-11.934-11.648-18.09-6.1719-7.6016-13.168-16.215-15.812-27.762-0.56641-2.4688 0.97656-4.9336 3.4492-5.5 2.4688-0.57422 4.9336 0.97656 5.5 3.4492 2.1719 9.4648 7.9141 16.539 13.992 24.027 6.4297 7.9141 13.047 16.09 14.688 27.023 4.6055 1.5117 9 3.0664 13.168 4.6406l9.7109-8.9297c1.8633-1.7148 4.7734-1.5938 6.4844 0.27344 1.7148 1.8672 1.5938 4.7695-0.27344 6.4844l-6.4609 5.9414c4.5 1.8789 8.6875 3.7578 12.539 5.5898 7.3867 3.5117 13.949 7.0117 19.695 10.332 10.422-0.1875 17.531-3.7188 22.527-11.457-5.5898 0.41797-12.969 0-20.324-3.2891-9.2773-4.1484-12.195-12.031-14.766-18.988-1.7109-4.6289-3.3242-9-6.6484-12.246-4.1641-4.0703-7.5195-4.6289-11.406-5.2734-3.7773-0.62891-8.0625-1.3398-12.328-5.207-4.4336-4.0234-5.8281-9.0117-7.0586-13.41-1.1875-4.2422-2.2109-7.9062-5.6445-11.059-6.5547-6.0234-64.898-26.426-103.44-21.152-39.258 5.375-95.109 42.855-107.04 59.719-9.8789 13.965-14.27 32.043-15.594 38.488 4.0039 3.2422 8.1289 4.4375 11.105 3.1172z"/>
  <path d="m268.03 153.63c-6.25 2.3438-11.066 7.1445-13.211 13.168-1.4023 3.9414-2.1133 7.9336-2.1133 11.863 0 7.5078 1.5742 12.812 3.0977 17.941 1.4023 4.7227 2.7266 9.1836 2.7266 14.723 0 4.7812-1.3008 9.0625-2.5547 13.195-1.8008 5.9336-3.5039 11.539-1.3672 18.633 1.9492 6.4766 6.2461 11.551 10.402 16.461 3.8906 4.5977 7.5664 8.9453 8.6055 13.988 0.85547 4.1523 0.22656 8.3125-0.4375 12.715-0.88672 5.8672-1.7969 11.93 0.82812 18.531 1.8359 4.6133 4.9297 7.8672 8 10.121 2.3125-4.8477 5.3633-9.9141 10.262-14.891 9.1875-9.3281 23.078-16.211 31.512-19.832-7.5664-6.8984-14.105-14.609-18.457-21.859-2.2383-3.7305-4.3477-8.2578-6.3008-13.453-11.582-0.44922-22.742-9.2578-27.473-22.211-6.1523-16.852 0.375-35.184 14.551-40.863 0.10547-0.042969 0.21484-0.078125 0.32031-0.12109-0.88672-11.938-1.0938-23.426-0.61719-34.312-7.2578 2.3633-13.32 4.5352-17.773 6.2031z"/>
  <path d="m174.67 278.6c4.8359 3.9023 9.8359 7.9375 12.75 14.547 3.1641 7.168 4.2148 31.477 3.1211 72.246-0.074219 2.7695 0.94922 5.3906 2.8828 7.375 1.9375 1.9883 4.5352 3.0859 7.3125 3.0859 2.8359 0 5.4688-1.1367 7.418-3.1953 1.9453-2.0586 2.9258-4.75 2.7656-7.5742-1.4727-25.891-2.7969-59.051-0.73828-69.988 1.2383-6.5742 3.6875-11.703 5.8477-16.227 3.4492-7.2305 6.1758-12.938 4.3867-23.234-1.375-7.9141-6.0469-12.727-11.457-18.301-5.8398-6.0195-12.461-12.84-14.172-24.184-0.82031-5.4492-0.61328-11.367-0.39062-17.633 0.59766-16.93 1.1602-32.918-17.68-39.996-4.5742-1.7188-9.1523-2.5703-13.602-2.5703-6.8438 0-13.379 2.0156-19.133 6.0039-8.668 5.9961-14.262 15.719-14.262 24.77 0 10.051 6.0078 13.605 13.613 18.109 5.1367 3.043 10.449 6.1875 13.988 11.629 5.0547 7.7734 4.4258 18.293 3.8164 28.465-0.46484 7.7734-0.94531 15.812 1.207 21.84 2.4531 6.8672 7.2461 10.738 12.324 14.832zm-2.9297-95.039c0.25-2.5234 2.5078-4.3633 5.0195-4.1172 2.5234 0.25 4.3672 2.4961 4.1172 5.0195-0.023437 0.23828-2.2695 23.785 2.2305 37.957 2.5156 7.9258 6.8477 12.863 11.035 17.637 3.25 3.707 6.6133 7.5391 8.7227 12.449 4.9375 11.5 0.26172 26.984 0.0625 27.641-0.60547 1.9727-2.4219 3.2383-4.3867 3.2383-0.44922 0-0.90234-0.066406-1.3516-0.20703-2.4219-0.74609-3.7812-3.3164-3.0352-5.7383 1.0859-3.5664 3.2617-14.363 0.27734-21.312-1.5352-3.5742-4.1523-6.5625-7.1875-10.016-4.5859-5.2266-9.7852-11.156-12.887-20.91-5.0742-15.984-2.7188-40.602-2.6172-41.641z"/>
  <path d="m495.91 219.58c4.1172-11.27 0.875-23.246-7.1719-28.09-1.8945 16.523-4.793 31.445-8.4414 43.75 6.6016-1.7617 12.68-7.6289 15.613-15.66z"/>
  <path d="m280.18 219.58c2.9336 8.0312 9 13.898 15.613 15.66-3.6484-12.309-6.5508-27.234-8.4414-43.75-8.0508 4.8438-11.289 16.82-7.1719 28.09z"/>
  <path d="m388.04 128.96c-33.488 0-68.055 8.0703-92.891 15.547-0.73047 12.605-0.5 26.113 0.71094 40.219 2.9258 29.938 9.4062 55.73 17.336 68.945 3.5781 5.9609 8.8555 12.312 15.02 18.172 0.12891-1.0117 0.28906-2.0273 0.50781-3.0391 1.168-5.418 4.1719-10.648 7.3984-15.016l-6.75 1.6289c-1.9883 0.47656-4.0664-0.41797-5.0742-2.207-1.0078-1.7852-0.71094-4.0234 0.73438-5.4844 5.4609-5.5273 7.7188-13.18 10.109-21.289 2.1719-7.3711 4.418-14.992 9.1875-22.117 10.113-15.121 26.047-23.789 43.719-23.789s33.605 8.6719 43.719 23.789c4.7695 7.1289 7.0156 14.75 9.1875 22.117 2.3906 8.1055 4.6484 15.762 10.109 21.289 1.4414 1.457 1.7422 3.6992 0.73438 5.4844-1.0078 1.7852-3.082 2.6836-5.0742 2.207l-6.75-1.6289c3.2266 4.3672 6.2305 9.6016 7.3984 15.016 0.21875 1.0117 0.375 2.0273 0.50781 3.0391 6.1641-5.8594 11.441-12.211 15.02-18.172 7.9258-13.215 14.41-39.008 17.34-68.996 1.2031-14.055 1.4375-27.555 0.70703-40.164-24.852-7.4766-59.422-15.551-92.906-15.551zm-41.465 55.828c-2.0742 1.0117-4.2969 1.5195-6.5352 1.5195-1.6406 0-3.2891-0.27344-4.8867-0.82422-3.7773-1.3008-6.8164-3.9961-8.5664-7.5859-1.1094-2.2773-0.16406-5.0273 2.1172-6.1367 2.2773-1.1133 5.0273-0.16406 6.1367 2.1172 0.67578 1.3867 1.8477 2.4219 3.3047 2.9258 1.457 0.5 3.0234 0.40625 4.4062-0.26562 2.8594-1.3945 4.0508-4.8516 2.6562-7.7148-1.1094-2.2773-0.16406-5.0273 2.1172-6.1367 2.2773-1.1133 5.0273-0.16406 6.1367 2.1172 3.6133 7.4062 0.52344 16.371-6.8867 19.984zm18.145-35.102c-0.40625 2.5-2.7656 4.2031-5.2695 3.7891-15.215-2.4883-28.871-0.53125-40.582 5.8125-0.69531 0.375-1.4453 0.55469-2.1797 0.55469-1.6289 0-3.2109-0.87109-4.0391-2.4062-1.207-2.2305-0.37891-5.0156 1.8516-6.2227 13.543-7.3359 29.16-9.625 46.438-6.8008 2.4922 0.41016 4.1875 2.7734 3.7812 5.2734zm84.77 28.211c-2.5859 5.3047-7.9219 8.3984-13.461 8.3984-2.1953 0-4.4219-0.48438-6.5234-1.5078-3.5898-1.75-6.2852-4.793-7.5859-8.5664-1.3008-3.7734-1.0547-7.832 0.69531-11.422 1.1133-2.2773 3.8555-3.2266 6.1367-2.1133 2.2773 1.1094 3.2266 3.8594 2.1133 6.1367-0.67578 1.3867-0.76953 2.9492-0.26953 4.4062 0.50391 1.457 1.543 2.6289 2.9258 3.3047 2.8594 1.3945 6.3203 0.19922 7.7148-2.6602 1.1094-2.2773 3.8555-3.2266 6.1367-2.1133 2.2812 1.1094 3.2305 3.8555 2.1172 6.1367zm13.945-20.457c-0.83203 1.5352-2.4102 2.4062-4.0391 2.4062-0.73828 0-1.4883-0.17969-2.1797-0.55469-11.711-6.3438-25.367-8.3008-40.582-5.8125-2.5078 0.41797-4.8594-1.2891-5.2695-3.7891-0.41016-2.5039 1.2891-4.8633 3.7891-5.2695 17.27-2.8242 32.895-0.53516 46.438 6.8008 2.2227 1.2031 3.0508 3.9883 1.8438 6.2188z"/>
  <path d="m422.71 286.04c2.2266-0.94141 4.7969-0.003906 5.8867 2.1445 2.8086 5.5352 5.7969 9.4414 9.1406 11.891-0.085938-4.0781 0.29687-8.1406 0.67187-12.121 0.57422-6.1133 1.1211-11.887-0.027343-17.211-1.8906-8.7578-11.43-18.449-14.945-21.445-1.6172-1.3789-2.0781-3.6836-1.1133-5.5781 0.96484-1.8906 3.1055-2.875 5.168-2.3789l9.8359 2.3711c-2.2539-4.7227-3.7344-9.7422-5.1875-14.676-1.9766-6.707-4.0234-13.648-8.0117-19.609-8.3828-12.527-21.535-19.715-36.09-19.715-14.551 0-27.707 7.1875-36.09 19.715-3.9883 5.9609-6.0352 12.898-8.0117 19.609-1.4531 4.9297-2.9336 9.9531-5.1875 14.676l9.8359-2.3711c2.0664-0.49609 4.2031 0.48828 5.168 2.3789 0.96484 1.8945 0.50391 4.1992-1.1133 5.5781-0.12109 0.10547-12.684 10.941-14.945 21.445-1.1484 5.3242-0.60547 11.098-0.027344 17.211 0.375 3.9805 0.75781 8.043 0.67188 12.121 3.3477-2.4531 6.3359-6.3594 9.1445-11.891 0.80469-1.5859 2.4141-2.5117 4.0938-2.5117 0.60156 0 1.2109 0.12109 1.793 0.36719 2.2227 0.94531 3.332 3.4531 2.5391 5.7305-0.074218 0.20703-7.2148 21.098-4.457 37.488 1.1055 6.5625 5.1016 14.582 9.7305 23.867 5.8047 11.648 12.73 25.543 16.879 42.277 3.7305-10.301 5.3906-22.074 5.3906-37.102 0-2.4688 1.9492-4.4922 4.418-4.5859 2.4219-0.085938 4.5664 1.7773 4.75 4.2383 0.98438 12.98 2.1367 20.07 6.1641 27.758 3.9688-16.582 10.891-27.719 16.656-36.996 4.5312-7.2891 8.1094-13.047 9.1914-19.453 2.7617-16.391-4.3828-37.281-4.457-37.488-0.79688-2.2812 0.3125-4.7891 2.5352-5.7344z"/>
  <path d="m388.04 71.383c-31.5 0-62.113 4.2148-90.992 12.523-3.2734 0.94141-5.5273 3.9219-5.6016 7.4102-0.20312 9.3398-4.0586 16.359-10.574 19.262-7.0312 3.1328-15.641 0.69141-23.039-6.5273-2.4609-2.4062-6.1172-3.043-9.0898-1.582-21.527 10.574-35.473 20.953-41.016 25.406l17.047 32.328c2.8789 5.457 8.2578 9.1133 14.387 9.7852l5.1523 0.5625c0.4375-2.2852 1.0508-4.5625 1.8555-6.8203 3.0508-8.582 9.8438-15.395 18.637-18.688 20.246-7.5938 72.777-25.254 123.24-25.254 50.457 0 102.99 17.66 123.24 25.254 8.7891 3.293 15.582 10.109 18.637 18.688 0.80078 2.2578 1.4141 4.5391 1.8516 6.8203l5.1484-0.5625c6.1328-0.67188 11.512-4.3281 14.387-9.7852l17.047-32.328c-5.8398-4.6914-21.027-15.973-44.602-27.137-28.281-13.395-74.781-29.355-135.71-29.355z"/>
  <path d="m523.38 178.66c0-3.9258-0.71094-7.918-2.1133-11.863-2.1445-6.0234-6.957-10.824-13.211-13.168-4.4531-1.668-10.516-3.8398-17.777-6.1992 0.47656 10.898 0.26953 22.395-0.61719 34.312 0.10547 0.042968 0.21484 0.078125 0.32422 0.12109 14.176 5.6797 20.703 24.016 14.551 40.863-4.7305 12.953-15.895 21.758-27.473 22.211-1.9531 5.1992-4.0625 9.7227-6.3008 13.453-4.4297 7.3828-11.125 15.246-18.863 22.234 9.6523 5.0117 27.352 15.84 36.016 31.48 0.93359 1.6875 1.7773 3.3945 2.5664 5.1016 3.6211-1.9258 8.9648-5.7383 11.598-12.355 2.625-6.6016 1.7109-12.664 0.82812-18.531-0.66406-4.4023-1.2891-8.5625-0.4375-12.715 1.0391-5.043 4.7148-9.3906 8.6055-13.988 4.1523-4.9062 8.4492-9.9844 10.402-16.465 2.1367-7.0977 0.4375-12.699-1.3672-18.633-1.2578-4.1367-2.5547-8.4141-2.5547-13.195 0-5.5391 1.3242-10 2.7266-14.723 1.5234-5.1289 3.0977-10.43 3.0977-17.941z"/>
  <use x="129.722656" y="577.214844" xlink:href="#v"/>
  <use x="133.933594" y="577.214844" xlink:href="#d"/>
  <use x="136.761719" y="577.214844" xlink:href="#b"/>
  <use x="140.65625" y="577.214844" xlink:href="#l"/>
  <use x="144.527344" y="577.214844" xlink:href="#a"/>
  <use x="147.269531" y="577.214844" xlink:href="#b"/>
  <use x="151.160156" y="577.214844" xlink:href="#f"/>
  <use x="157.265625" y="577.214844" xlink:href="#k"/>
  <use x="161.371094" y="577.214844" xlink:href="#e"/>
  <use x="167.109375" y="577.214844" xlink:href="#j"/>
  <use x="171.550781" y="577.214844" xlink:href="#i"/>
  <use x="177.53125" y="577.214844" xlink:href="#b"/>
  <use x="181.421875" y="577.214844" xlink:href="#a"/>
  <use x="184.164062" y="577.214844" xlink:href="#h"/>
  <use x="188.25" y="577.214844" xlink:href="#e"/>
  <use x="191.988281" y="577.214844" xlink:href="#u"/>
  <use x="195.40625" y="577.214844" xlink:href="#a"/>
  <use x="200.144531" y="577.214844" xlink:href="#t"/>
  <use x="204.277344" y="577.214844" xlink:href="#a"/>
  <use x="207.019531" y="577.214844" xlink:href="#g"/>
  <use x="211.105469" y="577.214844" xlink:href="#f"/>
  <use x="215.210938" y="577.214844" xlink:href="#s"/>
  <use x="217.179688" y="577.214844" xlink:href="#c"/>
  <use x="129.722656" y="582.953125" xlink:href="#r"/>
  <use x="132.21875" y="582.953125" xlink:href="#d"/>
  <use x="135.046875" y="582.953125" xlink:href="#c"/>
  <use x="138.988281" y="582.953125" xlink:href="#i"/>
  <use x="146.964844" y="582.953125" xlink:href="#a"/>
  <use x="149.710938" y="582.953125" xlink:href="#h"/>
  <use x="153.792969" y="582.953125" xlink:href="#b"/>
  <use x="159.683594" y="582.953125" xlink:href="#q"/>
  <use x="164.484375" y="582.953125" xlink:href="#c"/>
  <use x="168.425781" y="582.953125" xlink:href="#g"/>
  <use x="172.511719" y="582.953125" xlink:href="#p"/>
  <use x="178.59375" y="582.953125" xlink:href="#o"/>
  <use x="182.800781" y="582.953125" xlink:href="#d"/>
  <use x="185.628906" y="582.953125" xlink:href="#c"/>
  <use x="189.570312" y="582.953125" xlink:href="#n"/>
  <use x="191.539062" y="582.953125" xlink:href="#b"/>
  <use x="195.429688" y="582.953125" xlink:href="#m"/>
  <use x="198.832031" y="582.953125" xlink:href="#a"/>
 </g>
</svg>
