<?xml version="1.0" encoding="UTF-8"?>
<svg width="700pt" height="700pt" version="1.1" viewBox="0 0 700 550" xmlns="http://www.w3.org/2000/svg"
    xmlns:xlink="http://www.w3.org/1999/xlink" fill="currentColor">
    <defs>
        <symbol id="n" overflow="visible">
            <path
                d="m29.312-1.75c-1.5117 0.78125-3.0898 1.3711-4.7344 1.7656-1.6367 0.40625-3.3398 0.60938-5.1094 0.60938-5.3125 0-9.5273-1.4844-12.641-4.4531-3.1055-2.9688-4.6562-7-4.6562-12.094s1.5508-9.125 4.6562-12.094c3.1133-2.9688 7.3281-4.4531 12.641-4.4531 1.7695 0 3.4727 0.19922 5.1094 0.59375 1.6445 0.39844 3.2227 0.99219 4.7344 1.7812v6.5938c-1.5312-1.0391-3.0391-1.8008-4.5156-2.2812-1.4805-0.48828-3.0391-0.73438-4.6719-0.73438-2.9375 0-5.2461 0.94531-6.9219 2.8281-1.6797 1.875-2.5156 4.4648-2.5156 7.7656 0 3.293 0.83594 5.8828 2.5156 7.7656 1.6758 1.875 3.9844 2.8125 6.9219 2.8125 1.6328 0 3.1914-0.23828 4.6719-0.71875 1.4766-0.48828 2.9844-1.2539 4.5156-2.2969z" />
        </symbol>
        <symbol id="i" overflow="visible">
            <path
                d="m21.453-17.406c-0.67969-0.3125-1.3516-0.53906-2.0156-0.6875-0.65625-0.15625-1.3203-0.23438-1.9844-0.23438-1.9688 0-3.4844 0.63281-4.5469 1.8906-1.0547 1.2617-1.5781 3.0703-1.5781 5.4219v11.016h-7.6562v-23.922h7.6562v3.9219c0.97656-1.5625 2.1016-2.7031 3.375-3.4219 1.2812-0.71875 2.8125-1.0781 4.5938-1.0781 0.25 0 0.52344 0.011719 0.82812 0.03125 0.30078 0.023438 0.73438 0.070312 1.2969 0.14062z" />
        </symbol>
        <symbol id="a" overflow="visible">
            <path
                d="m27.562-12.031v2.1875h-17.891c0.1875 1.793 0.83203 3.1367 1.9375 4.0312 1.1133 0.89844 2.6719 1.3438 4.6719 1.3438 1.6016 0 3.25-0.23438 4.9375-0.70312 1.6875-0.47656 3.4219-1.2031 5.2031-2.1719v5.8906c-1.8047 0.6875-3.6094 1.2031-5.4219 1.5469-1.8125 0.35156-3.6211 0.53125-5.4219 0.53125-4.3359 0-7.7031-1.0977-10.109-3.2969-2.3984-2.207-3.5938-5.2969-3.5938-9.2656 0-3.9062 1.1758-6.9727 3.5312-9.2031 2.3633-2.2383 5.6094-3.3594 9.7344-3.3594 3.7578 0 6.7695 1.1367 9.0312 3.4062 2.2578 2.2617 3.3906 5.2812 3.3906 9.0625zm-7.8594-2.5312c0-1.457-0.42969-2.6289-1.2812-3.5156-0.84375-0.89453-1.9492-1.3438-3.3125-1.3438-1.4922 0-2.6992 0.41797-3.625 1.25-0.91797 0.83594-1.4922 2.0391-1.7188 3.6094z" />
        </symbol>
        <symbol id="h" overflow="visible">
            <path
                d="m14.391-10.766c-1.5938 0-2.793 0.27344-3.5938 0.8125-0.80469 0.54297-1.2031 1.3398-1.2031 2.3906 0 0.96875 0.32031 1.7305 0.96875 2.2812 0.64453 0.54297 1.5469 0.8125 2.7031 0.8125 1.4375 0 2.6445-0.51562 3.625-1.5469 0.98828-1.0312 1.4844-2.3203 1.4844-3.875v-0.875zm11.688-2.8906v13.656h-7.7031v-3.5469c-1.0312 1.4492-2.1875 2.5078-3.4688 3.1719s-2.8398 1-4.6719 1c-2.4805 0-4.4961-0.72266-6.0469-2.1719-1.543-1.4453-2.3125-3.3203-2.3125-5.625 0-2.8125 0.96094-4.8672 2.8906-6.1719 1.9375-1.3125 4.9688-1.9688 9.0938-1.9688h4.5156v-0.60938c0-1.207-0.48047-2.0938-1.4375-2.6562-0.94922-0.5625-2.4375-0.84375-4.4688-0.84375-1.6367 0-3.1562 0.16797-4.5625 0.5-1.4062 0.32422-2.7188 0.8125-3.9375 1.4688v-5.8281c1.6445-0.40625 3.2891-0.70703 4.9375-0.90625 1.6562-0.20703 3.3047-0.3125 4.9531-0.3125 4.3203 0 7.4375 0.85547 9.3438 2.5625 1.9141 1.6992 2.875 4.4609 2.875 8.2812z" />
        </symbol>
        <symbol id="g" overflow="visible">
            <path
                d="m12.031-30.719v6.7969h7.875v5.4688h-7.875v10.141c0 1.1172 0.21875 1.8711 0.65625 2.2656 0.4375 0.38672 1.3125 0.57812 2.625 0.57812h3.9375v5.4688h-6.5625c-3.0234 0-5.1641-0.62891-6.4219-1.8906-1.2617-1.2578-1.8906-3.3984-1.8906-6.4219v-10.141h-3.7969v-5.4688h3.7969v-6.7969z" />
        </symbol>
        <symbol id="f" overflow="visible">
            <path
                d="m19.953-20.422v-12.812h7.6875v33.234h-7.6875v-3.4531c-1.0547 1.4062-2.2148 2.4375-3.4844 3.0938-1.2734 0.65625-2.7422 0.98438-4.4062 0.98438-2.9492 0-5.3711-1.1719-7.2656-3.5156-1.8867-2.3438-2.8281-5.3594-2.8281-9.0469s0.94141-6.7031 2.8281-9.0469c1.8945-2.3438 4.3164-3.5156 7.2656-3.5156 1.6562 0 3.1172 0.33594 4.3906 1 1.2812 0.65625 2.4453 1.6836 3.5 3.0781zm-5.0469 15.484c1.6445 0 2.8945-0.59766 3.75-1.7969 0.86328-1.1953 1.2969-2.9297 1.2969-5.2031 0-2.2812-0.43359-4.0195-1.2969-5.2188-0.85547-1.1953-2.1055-1.7969-3.75-1.7969-1.625 0-2.8711 0.60156-3.7344 1.7969-0.85547 1.1992-1.2812 2.9375-1.2812 5.2188 0 2.2734 0.42578 4.0078 1.2812 5.2031 0.86328 1.1992 2.1094 1.7969 3.7344 1.7969z" />
        </symbol>
        <symbol id="e" overflow="visible">
            <path
                d="m16.406-4.9375c1.6328 0 2.8828-0.59766 3.75-1.7969 0.86328-1.1953 1.2969-2.9297 1.2969-5.2031 0-2.2812-0.43359-4.0195-1.2969-5.2188-0.86719-1.1953-2.1172-1.7969-3.75-1.7969-1.6367 0-2.8906 0.60547-3.7656 1.8125-0.875 1.1992-1.3125 2.9336-1.3125 5.2031 0 2.2617 0.4375 3.9961 1.3125 5.2031 0.875 1.1992 2.1289 1.7969 3.7656 1.7969zm-5.0781-15.484c1.0508-1.3945 2.2188-2.4219 3.5-3.0781 1.2812-0.66406 2.7539-1 4.4219-1 2.9453 0 5.3672 1.1719 7.2656 3.5156 1.8945 2.3438 2.8438 5.3594 2.8438 9.0469s-0.94922 6.7031-2.8438 9.0469c-1.8984 2.3438-4.3203 3.5156-7.2656 3.5156-1.668 0-3.1406-0.33594-4.4219-1s-2.4492-1.6914-3.5-3.0781v3.4531h-7.6562v-33.234h7.6562z" />
        </symbol>
        <symbol id="d" overflow="visible">
            <path
                d="m0.53125-23.922h7.6562l6.4219 16.234 5.4688-16.234h7.6562l-10.062 26.188c-1.0117 2.6641-2.1953 4.5234-3.5469 5.5781-1.3438 1.0625-3.1211 1.5938-5.3281 1.5938h-4.4219v-5.0156h2.3906c1.3008 0 2.2422-0.21094 2.8281-0.625 0.59375-0.40625 1.0547-1.1484 1.3906-2.2188l0.20312-0.65625z" />
        </symbol>
        <symbol id="c" overflow="visible">
            <path d="m0.21875-31.891h29.391v6.2188h-10.578v25.672h-8.2188v-25.672h-10.594z" />
        </symbol>
        <symbol id="b" overflow="visible">
            <path
                d="m15.062-19.031c-1.6992 0-2.9961 0.60938-3.8906 1.8281-0.88672 1.2188-1.3281 2.9766-1.3281 5.2656 0 2.293 0.44141 4.0469 1.3281 5.2656 0.89453 1.2188 2.1914 1.8281 3.8906 1.8281 1.6641 0 2.9375-0.60938 3.8125-1.8281 0.88281-1.2188 1.3281-2.9727 1.3281-5.2656 0-2.2891-0.44531-4.0469-1.3281-5.2656-0.875-1.2188-2.1484-1.8281-3.8125-1.8281zm0-5.4688c4.1133 0 7.3281 1.1094 9.6406 3.3281s3.4688 5.2969 3.4688 9.2344c0 3.9297-1.1562 7.0078-3.4688 9.2344-2.3125 2.2188-5.5273 3.3281-9.6406 3.3281-4.1367 0-7.3711-1.1094-9.7031-3.3281-2.3242-2.2266-3.4844-5.3047-3.4844-9.2344 0-3.9375 1.1602-7.0156 3.4844-9.2344 2.332-2.2188 5.5664-3.3281 9.7031-3.3281z" />
        </symbol>
        <symbol id="m" overflow="visible">
            <path
                d="m2.4531-31.891h26.812v4.9688l-17.109 20.703h17.594v6.2188h-27.781v-4.9844l17.109-20.688h-16.625z" />
        </symbol>
        <symbol id="l" overflow="visible">
            <path d="m4.0156-31.891h8.2188v31.891h-8.2188z" />
        </symbol>
        <symbol id="k" overflow="visible">
            <path
                d="m23-23.172v6.2344c-1.0312-0.71875-2.0742-1.2422-3.125-1.5781-1.043-0.34375-2.125-0.51562-3.25-0.51562-2.1367 0-3.8047 0.625-5 1.875-1.1875 1.2422-1.7812 2.9805-1.7812 5.2188 0 2.2305 0.59375 3.9688 1.7812 5.2188 1.1953 1.25 2.8633 1.875 5 1.875 1.1953 0 2.332-0.17578 3.4062-0.53125 1.0703-0.36328 2.0625-0.89453 2.9688-1.5938v6.2656c-1.1875 0.4375-2.4023 0.76562-3.6406 0.98438-1.2305 0.22656-2.4648 0.34375-3.7031 0.34375-4.3125 0-7.6875-1.1094-10.125-3.3281s-3.6562-5.2969-3.6562-9.2344c0-3.9453 1.2188-7.0234 3.6562-9.2344 2.4375-2.2188 5.8125-3.3281 10.125-3.3281 1.25 0 2.4844 0.10938 3.7031 0.32812s2.4297 0.55469 3.6406 1z" />
        </symbol>
        <symbol id="j" overflow="visible">
            <path
                d="m27.734-14.562v14.562h-7.7031v-11.156c0-2.0625-0.046875-3.4844-0.14062-4.2656-0.085937-0.78125-0.24219-1.3594-0.46875-1.7344-0.30469-0.5-0.71094-0.88281-1.2188-1.1562-0.51172-0.28125-1.0938-0.42188-1.75-0.42188-1.5938 0-2.8516 0.61719-3.7656 1.8438-0.90625 1.2305-1.3594 2.9375-1.3594 5.125v11.766h-7.6562v-23.922h7.6562v3.5c1.1445-1.3945 2.3633-2.4219 3.6562-3.0781 1.3008-0.66406 2.7383-1 4.3125-1 2.7578 0 4.8516 0.85156 6.2812 2.5469 1.4375 1.6875 2.1562 4.1523 2.1562 7.3906z" />
        </symbol>
    </defs>
    <g>
        <path d="m371.88 462.98v83.895h17.5v-84.473c-5.2227 0.74219-11.34 1.1719-17.5 0.57812z" />
        <path
            d="m350.32 458.11c-3.332 2.0469-4.5586 9.7461-4.6914 13.754 1.4336 4.6367 8.2266 28.945-0.47266 46.348-5.9219 11.848-2.7734 23.738-0.98047 28.664h18.945v-85.559c-2.1719-0.62891-4.3047-1.3906-6.3359-2.4062-2.8438-1.4258-5.0312-1.707-6.4648-0.80469z" />
        <path
            d="m266.88 138.84v44.285c3.0273-0.21094 6.6953-1.0586 11.164-3.2891 2.2734-1.1367 4.3828-2.0391 6.3359-2.7305v-45.195c-3.7188-0.42969-7.5352-0.0625-10.027 2.4336-2.4141 2.4219-4.9609 3.7812-7.4727 4.4961z" />
        <path
            d="m262.5 130.75h0.015625c1.707 0.035156 3.6484-0.60547 5.6445-2.5898 7.1484-7.1406 18.094-5.418 24.973-3.2812v-89.879c0-2.4141-1.9688-4.375-4.375-4.375-16.887 0-30.625 13.738-30.625 30.625v67.961c1.0586 0.74219 2.5742 1.5039 4.3398 1.5469h0.035156z" />
        <path
            d="m517.88 520.31c-38.332 15.328-100.65-1.1562-119.75-6.8672v33.434h218.75v-27.238c-12.941-3.1836-62.703-13.844-98.996 0.68359z" />
        <path
            d="m336.88 472.5c0-1.6719 0.24609-16.527 8.8477-21.84 2.8711-1.7773 7.8242-3.1602 14.988 0.42188 12.441 6.2227 30.391 2.4844 37.414 0.62891v-12.301c0-13.336 2.9844-26.766 8.6172-38.852l44.809-96.031c5.7734-12.363 15.086-22.469 26.914-29.227l41.211-23.547c1.5742-0.90234 2.9062-2.082 3.9805-3.5156l20.359-27.16c1.1211-1.4805 1.1719-3.5078 0.14844-5.0586-2.7305-4.1055-7.1211-6.7461-12.039-7.2266-4.9531-0.48047-9.7305 1.2422-13.223 4.7266l-15.066 15.059c-1.6719 1.6719-3.5859 3.0547-5.6797 4.0938l-42.133 21.07c-6.457 3.2383-14.375 0.61328-17.613-5.8711l-2.625-5.2422c-2.0469-4.0938-1.793-9.0469 0.66406-12.914l53.898-75.957c2.4688-3.875 3.6484-8.75 3.2109-13.535-0.58594-6.5625-1.4609-17.93-2.4062-30.309-1.1367-14.859-2.3711-31.184-3.4023-42.43-0.375-4.1562-2.625-7.7773-6.168-9.9492-3.5977-2.2031-7.9375-2.5547-11.883-0.97266-11.27 4.5078-17.867 15.523-16.59 27.012l5.1719 46.426c0.79688 7.1484-0.96094 14.387-4.9531 20.371l-51.738 65.492c-3.832 4.8477-10.613 6.3594-16.172 3.6055l-4.3477-2.1797c-5.8008-2.9062-8.6289-9.7305-6.5781-15.891l28.91-86.73c2.1172-6.3281 2.1172-13.012 0.015625-19.328l-24.438-73.309c-1.2617-3.7812-4.1133-6.7383-7.8398-8.1094-3.7969-1.3984-7.9609-0.99609-11.473 1.1016-13.176 7.9102-19.059 23.074-14.824 37.195l14.57 48.547c2.5547 8.4961 2.1445 17.703-1.1562 25.934l-28.262 70.656c-2.0039 5.0156-6.7734 8.25-12.18 8.25h-11.578c-7.2344 0-13.125-5.8906-13.125-13.125v-8.6367c-0.20312 0.36719-2.9648-0.30469-11.164 3.7969-7.8594 3.9297-14.289 4.7266-19.234 4.207-0.078125 0-0.14062 0.042969-0.22656 0.042969-0.53516 0-1.043-0.13281-1.5156-0.30469-1.0156-0.18359-1.9844-0.39453-2.8594-0.65625v10.297c-5.3125 26.992-22.461 50.051-36.758 65.457l6.1758 12.348c1.7578 3.5273 4.9961 6.0469 8.8906 6.9375 20.293 4.6211 69.816 20.789 91.34 71.043 0.94531 2.2227-0.078125 4.7852-2.3008 5.7383-2.2148 0.95312-4.7852-0.0625-5.75-2.3008-19.941-46.543-66.254-61.625-85.242-65.957-6.4414-1.4688-11.828-5.6797-14.77-11.551l-20.938-41.859c-1.3906-2.8008-1.7422-6.0195-0.98828-9.0469l0.57812-2.3359c4.375-17.484 0.68359-35.77-10.133-50.191-0.89062-1.1992-2.2383-1.7656-3.7695-1.7422-1.4961 0.097656-2.7734 0.89062-3.5156 2.1953l-25.148 43.996c-1.5742 2.7578-2.1016 5.9844-1.4805 9.0898l15.445 77.184c0.38672 1.918 1.207 3.7461 2.3711 5.293l58.879 78.504c11.848 15.801 18.375 35.375 18.375 55.125v97.711h85.637c-2.1367-7.2617-4.0781-19.785 2.3203-32.586 7.8477-15.699-0.15625-40.164-0.23438-40.406-0.14844-0.44531-0.21875-0.91016-0.21875-1.3828z" />
        <path
            d="m164.87 520.4c-42.34-14.113-73.133-4.5859-81.742-1.2617v27.73h157.5v-20.633c-18.863 3.1133-45.859 4.1133-75.758-5.8438z" />
        <use x="70" y="691.25" xlink:href="#n" />
        <use x="102.109375" y="691.25" xlink:href="#i" />
        <use x="123.683594" y="691.25" xlink:href="#a" />
        <use x="153.355469" y="691.25" xlink:href="#h" />
        <use x="182.878906" y="691.25" xlink:href="#g" />
        <use x="203.792969" y="691.25" xlink:href="#a" />
        <use x="233.464844" y="691.25" xlink:href="#f" />
        <use x="280.011719" y="691.25" xlink:href="#e" />
        <use x="311.328125" y="691.25" xlink:href="#d" />
        <use x="355.078125" y="691.25" xlink:href="#c" />
        <use x="384.921875" y="691.25" xlink:href="#b" />
        <use x="414.980469" y="691.25" xlink:href="#m" />
        <use x="446.703125" y="691.25" xlink:href="#l" />
        <use x="462.980469" y="691.25" xlink:href="#k" />
        <use x="488.914062" y="691.25" xlink:href="#b" />
        <use x="518.972656" y="691.25" xlink:href="#j" />
    </g>
</svg>